<svg width="701" height="229" viewBox="0 0 701 229" fill="none" xmlns="http://www.w3.org/2000/svg">
<mask id="mask0_41_190" style="mask-type:alpha" maskUnits="userSpaceOnUse" x="-9" y="0" width="676" height="229">
<path d="M-9 -3.05176e-05V228.264C19.0687 199.823 62.2394 168.628 125.702 151.122C262.656 113.341 342.94 179.457 442.113 179.457C541.287 179.457 583.79 141.676 626.293 56.6706C637.299 34.6612 651.476 15.8418 666.437 -3.05176e-05H-9Z" fill="#487799"/>
</mask>
<g mask="url(#mask0_41_190)">
<path d="M-9 -3.05176e-05V228.264C19.0687 199.823 62.2394 168.628 125.702 151.122C262.656 113.341 342.94 179.457 442.113 179.457C541.287 179.457 583.79 141.676 626.293 56.6706C637.299 34.6612 651.476 15.8418 666.437 -3.05176e-05H-9Z" fill="#487799"/>
</g>
<path d="M261 108C110.2 25.6 51.5 66.5 -4 108V-10H701C618.5 38 644.427 83.2117 564 148C492 206 309.333 132 261 108Z" fill="#78C6FF"/>
</svg>
