<svg width="518" height="1024" viewBox="0 0 518 1024" fill="none" xmlns="http://www.w3.org/2000/svg">
<g clip-path="url(#clip0_29_1689)">
<rect width="518" height="1024" fill="#C9F0F2"/>
<path d="M20.2226 860H0V496.705C62.2223 409.916 159.855 354 269.629 354C367.604 354 455.902 398.537 518 469.812V636.101C491.789 601.452 453.853 572.78 408.41 553.354C415.67 547.93 422.038 542.722 421.71 541.366C420.961 538.271 416.472 507.451 416.472 507.451L411.786 501.148L408.831 488.72L385.444 465.721L379.866 490.38L400.352 528.742L385.131 544.442C372.015 539.983 358.384 536.258 344.333 533.339L351.883 520.029L305.942 450.754L286.737 472.512L267.169 504.463L277.094 525.824C274.613 525.775 272.124 525.75 269.629 525.75C146.128 525.75 40.7978 586.058 0 670.74V826.753C5.57376 838.322 12.349 849.434 20.2226 860Z" fill="#BDE9EB"/>
<path d="M518 860H20.2226C12.349 849.434 5.57376 838.322 0 826.753V670.74C40.7978 586.058 146.128 525.75 269.629 525.75C272.124 525.75 274.613 525.775 277.094 525.824L298.409 571.706L283.519 633.284L346.837 709.497L344.367 730.557L385.444 661.612L388.313 568.001L388.994 567.164C391.483 565.462 400.479 559.279 408.41 553.354C453.853 572.78 491.789 601.452 518 636.101V860ZM348.048 699.177L340.514 647.473L330.998 642.044L337.736 576.559L330.998 569.929L336.123 562.79L330.998 556.846L344.333 533.339C358.384 536.258 372.015 539.983 385.131 544.442L356.178 574.306L360.873 587.702L344.367 655.204L352.194 663.821L348.048 699.177" fill="#ABE3E3"/>
<path d="M246.878 724.095L383 714L345.161 1032H129L246.878 724.095Z" fill="#2E221A"/>
<path d="M255 720L236.191 916.609L225.151 1032H80L93.9038 899.156L157.955 806.531L255 720Z" fill="#433628"/>
<path d="M210 872L220 1032H167.551L120 941.274L210 872Z" fill="#664F37"/>
<path d="M228 761.576L236.071 916L255 720L228 761.576Z" fill="#664F37"/>
<path d="M228.315 761.706L185.136 813.69L211.584 869.724L124.7 944.25L109.783 1032H0.495146L-2 731.207L255 720L228.315 761.706Z" fill="#9EB121"/>
<path d="M366 899.418L364.774 1032H233.317L231 1001.32L280.274 966.925L279.817 964.541L272.252 924.962L286.155 915.669L277.084 779H341.529L366 899.418Z" fill="#433628"/>
<path d="M518 772.645V1032H239.001L231 1001.37L279.69 964.653L293.464 954.283L272.145 925.14L286.012 915.863L303.019 904.496L326.649 888.71L294.22 837.709L303.911 803.708L286.644 788.14L276.964 779.421L382.729 741L518 772.645" fill="#9EB121"/>
<path d="M294 838L302.951 905L327 889.154L294 838Z" fill="#664F37"/>
<path d="M277 779L286.343 916L287 787.761L277 779Z" fill="#664F37"/>
<path d="M385.444 465.721L379.866 490.38L400.352 528.742L356.178 574.306L360.873 587.702L344.367 655.204L352.194 663.821L344.367 730.557L385.444 661.612L388.326 567.619C388.326 567.619 422.459 544.461 421.71 541.366C420.961 538.271 416.472 507.451 416.472 507.451L385.444 465.721" fill="#B18054"/>
<path d="M411.786 501.148L385.443 465.721L408.831 488.72L411.786 501.148Z" fill="#96BDA3"/>
<path d="M388.312 568.001L388.325 567.619C388.325 567.619 388.56 567.46 388.993 567.164L388.312 568.001" fill="#85B89E"/>
<path d="M350.188 653.802C347.49 643.483 366.484 584.57 366.484 584.57L362.234 576.559L407.692 529.355L384.346 489.602L385.443 465.721L411.786 501.148L418.766 530.515L388.994 567.164C388.561 567.46 388.325 567.619 388.325 567.619L388.313 568.001L374.513 584.988L350.188 653.802Z" fill="#955D3A"/>
<path d="M412.907 530.037C408.231 533.801 405.723 538.874 401.433 542.718C397.946 545.75 394.587 548.743 391.331 551.764L452.089 564.369C452.089 564.369 440.797 485.907 428.655 477.363C424.618 474.522 407.069 470.211 385.443 465.721C385.939 467.016 386.433 468.31 386.946 469.571C395.094 491.056 402.768 510.722 412.907 530.037" fill="#3C1514"/>
<path d="M443.693 518.363C433.123 521.829 422.583 525.705 412.506 530.376C408.089 534.101 405.597 538.988 401.433 542.718C397.946 545.75 394.587 548.743 391.331 551.764L452.089 564.369C452.089 564.369 448.724 540.988 443.693 518.363" fill="#2C1414"/>
<path d="M443.387 562.563L391.331 551.764C382.644 559.823 374.707 568.078 367.15 577.777C367.15 577.777 369.403 580.827 369.18 582.071C362.478 606.071 353.997 628.839 350.069 652.982C349.697 655.057 355.733 659.321 356.756 662.546C358.665 671.979 354.877 681.95 353.863 692.068C353.252 699.303 352.009 706.407 350.128 713.46L413.967 726.702L443.387 562.563" fill="#BC1919"/>
<path d="M427.777 559.325C424.207 575.31 420.543 591.275 416.252 607.328C405.494 648.12 385.725 686.075 357.315 714.95L413.967 726.702L443.387 562.563L427.777 559.325" fill="#8E1616"/>
<path d="M344.783 729.344C344.639 729.75 344.506 730.152 344.367 730.557L419.583 746.16L424.661 717.824L352.465 702.847C350.906 711.772 348.358 720.555 344.783 729.344" fill="#441616"/>
<path d="M463.01 576.56L464.726 566.99L391.331 551.764C388.435 554.451 385.622 557.16 382.88 559.935L463.01 576.56" fill="white"/>
<path d="M397.103 589.259C395.978 588.743 394.777 588.349 393.52 588.082C392.428 587.849 391.339 587.724 390.262 587.707C386.738 587.616 383.383 588.634 380.597 590.464C376.956 592.864 374.287 596.674 373.43 601.336L365.644 643.691L399.623 650.919L407.409 608.565C408.892 600.499 404.418 592.536 397.103 589.259" fill="white"/>
<path d="M395.98 591.937C395.045 591.489 394.045 591.151 392.997 590.928C392.086 590.735 391.177 590.636 390.275 590.636C387.327 590.605 384.507 591.57 382.153 593.259C379.077 595.475 376.797 598.945 376.022 603.16L368.984 641.444L397.329 647.473L404.367 609.191C405.707 601.9 402.062 594.787 395.98 591.937Z" fill="#53AEB8"/>
<path d="M391.941 613.911L395.98 591.937C395.045 591.489 394.045 591.151 392.996 590.928C392.086 590.735 391.176 590.636 390.275 590.636L386.22 612.694L374.718 610.248L373.585 616.41L385.087 618.859L380.485 643.891L386.206 645.107L390.807 620.075L401.931 622.441L403.063 616.277L391.941 613.911" fill="white"/>
<path d="M305.942 450.754L351.884 520.029L330.998 556.846L336.123 562.79L330.998 569.929L337.736 576.559L330.998 642.044L340.515 647.473L350.129 713.46L283.519 633.284L298.409 571.706L267.169 504.463L286.737 472.512L305.942 450.754Z" fill="#B18054"/>
<path d="M325.679 558.881C325.679 558.881 331.308 521.894 344.709 513.363L351.883 520.029L325.679 558.881Z" fill="#955D3A"/>
<path d="M305.943 450.754C305.421 450.802 304.897 450.85 304.374 450.898C254.028 455.537 203.62 459.407 153.171 462.508C121.698 464.443 91.8344 467.035 86.0737 470.105C73.0735 477.034 53.1855 553.494 53.1855 553.494L228.387 540.041L240.158 539.138L336.123 531.769C338.738 525.517 341.551 519.346 344.71 513.363C337.547 506.289 313.253 463.215 305.943 450.754" fill="#3C1514"/>
<path d="M170.559 461.406C164.764 461.782 158.968 462.152 153.171 462.508C121.698 464.443 91.8344 467.035 86.0737 470.105C73.0735 477.034 53.1855 553.494 53.1855 553.494L72.3848 552.02C109.057 527.385 142.879 497.173 170.559 461.406" fill="#631E1A"/>
<path d="M338.995 652.747C337.988 649.435 329.732 649.646 328.781 647.177C324.696 639.018 328.698 628.121 329.23 618.337C329.902 604.73 330.574 591.122 333.625 577.757C325.958 574.956 330.632 562.313 330.632 562.313C330.632 562.313 328.086 559.543 325.679 558.881C329.027 549.884 332.37 540.743 336.123 531.769L62.0244 552.816L73.087 719.554L347.857 698.457C346.85 691.749 345.638 685.012 344.226 678.186C342.463 669.425 342.24 660.122 338.995 652.747" fill="#BC1919"/>
<path d="M104.748 647.434C109.454 609.74 121.308 575.981 139.723 546.85L62.0244 552.816L73.087 719.554L102.967 717.26C101.219 694.417 101.878 671.418 104.748 647.434" fill="#F41E1E"/>
<path d="M160.137 730.878L65.359 738.155L63.4492 709.37L158.227 702.092L160.137 730.878Z" fill="#441616"/>
<path d="M330.998 688.827L332.907 717.611L350.032 716.296C349.146 706.776 347.812 697.285 346.067 687.669L330.998 688.827Z" fill="#441616"/>
<path d="M40.3477 554.48L40.9928 564.201L332.077 541.85C333.381 538.477 334.725 535.111 336.123 531.769L40.3477 554.48Z" fill="white"/>
<path d="M92.8399 602.903L95.5068 645.984L130.068 643.508L127.401 600.428C126.893 592.224 120.656 585.777 112.802 584.647C111.591 584.463 110.336 584.417 109.059 584.509C107.948 584.589 106.865 584.771 105.821 585.055C102.394 585.946 99.3988 587.863 97.147 590.406C94.2086 593.74 92.5466 598.162 92.8399 602.903" fill="white"/>
<path d="M95.7807 603.944L98.1911 642.883L127.021 640.818L124.611 601.879C124.151 594.463 118.92 588.607 112.361 587.548C111.349 587.375 110.302 587.327 109.235 587.403C108.31 587.47 107.408 587.628 106.536 587.88C103.681 588.67 101.189 590.388 99.3213 592.674C96.8835 595.671 95.5153 599.659 95.7807 603.944" fill="#53AEB8"/>
<path d="M96.2285 611.154L107.927 610.316L106.538 587.88C107.409 587.628 108.311 587.47 109.237 587.403C110.304 587.327 111.35 587.375 112.362 587.548L113.745 609.899L125.058 609.088L125.447 615.357L114.134 616.167L115.709 641.628L109.891 642.044L108.314 616.584L96.6162 617.422L96.2285 611.154" fill="white"/>
<path d="M308.837 513.543L228.943 443.135L158.886 528.551C159.027 530.684 167.273 720.133 167.273 720.133L329.839 707.651L324.474 658.06L308.837 513.543" fill="#BC1919"/>
<path d="M158.883 528.553C159.025 530.685 167.276 720.137 167.276 720.137L176.334 719.441L165.874 520.029L158.883 528.553Z" fill="#F41E1E"/>
<path d="M304.902 520.378L320.837 708.346L329.843 707.655L309.545 520.022L304.902 520.378Z" fill="#F41E1E"/>
<path d="M228.119 429.713L142.938 532.099L151.276 537.623L228.938 443.139L315.286 519.224L323.135 509.866L228.119 429.713" fill="white"/>
<path d="M151.276 537.623L159.266 537.01L230.775 454.7L304.902 520.378L315.31 519.579L228.938 443.139L151.276 537.623" fill="#79161A"/>
<path d="M160.137 730.878L332.907 717.611L330.529 681.779L157.76 695.045L160.137 730.878" fill="#631E1A"/>
<path d="M300.902 698.222L191.527 706.62L190.592 692.524L299.967 684.125L300.902 698.222Z" fill="white"/>
<path d="M300.902 698.222L191.528 706.62L191.06 699.572L300.435 691.173L300.902 698.222Z" fill="#BBBAB8"/>
<path d="M305.063 710.863L189.078 719.769L188.086 704.822L304.071 695.914L305.063 710.863" fill="white"/>
<path d="M305.063 710.863L189.078 719.769L188.582 712.295L304.566 703.389L305.063 710.863Z" fill="#BBBAB8"/>
<path d="M309.962 724.636L186.047 734.151L184.987 718.182L308.902 708.667L309.962 724.636Z" fill="white"/>
<path d="M309.962 724.636L186.047 734.151L185.517 726.166L309.432 716.652L309.962 724.636" fill="#BBBAB8"/>
<path d="M275.877 685.975L212.413 690.848L204.852 576.863L268.314 571.99L275.877 685.975" fill="#631E1A"/>
<path d="M279.481 571.133L193.685 577.721L193.088 568.726L278.884 562.138L279.481 571.133Z" fill="white"/>
<path d="M236.173 626.587L215.915 628.143L213.072 585.293L233.33 583.739L236.173 626.587Z" fill="#441616"/>
<path d="M264.379 624.421L244.121 625.976L241.278 583.128L261.536 581.573L264.379 624.421Z" fill="#441616"/>
<path d="M239.449 679.71L219.191 681.266L216.349 638.417L236.607 636.862L239.449 679.71Z" fill="#441616"/>
<path d="M267.654 677.545L247.396 679.099L244.555 636.251L264.813 634.696L267.654 677.545Z" fill="#441616"/>
<path d="M267.158 632.94C267.334 635.604 265.47 637.917 262.993 638.108C260.517 638.299 258.366 636.292 258.189 633.629C258.013 630.964 259.877 628.651 262.354 628.46C264.83 628.27 266.981 630.276 267.158 632.94" fill="white"/>
<path d="M215.075 510.264L217.742 553.343L252.304 550.866L249.636 507.787C249.129 499.583 242.892 493.137 235.037 492.008C233.827 491.823 232.572 491.777 231.294 491.868C230.184 491.947 229.102 492.13 228.056 492.413C224.629 493.306 221.634 495.223 219.383 497.766C216.444 501.099 214.782 505.521 215.075 510.264" fill="white"/>
<path d="M218.017 511.304L220.428 550.243L249.258 548.177L246.848 509.238C246.389 501.822 241.156 495.966 234.597 494.908C233.586 494.734 232.538 494.687 231.472 494.763C230.546 494.828 229.644 494.989 228.773 495.24C225.917 496.03 223.426 497.746 221.558 500.032C219.12 503.03 217.753 507.017 218.017 511.304" fill="#53AEB8"/>
<path d="M218.463 518.512L230.161 517.674L228.772 495.24C229.643 494.989 230.546 494.829 231.472 494.763C232.538 494.687 233.585 494.734 234.597 494.908L235.98 517.258L247.294 516.447L247.681 522.715L236.368 523.527L237.944 548.988L232.126 549.405L230.55 523.944L218.851 524.782L218.463 518.512Z" fill="white"/>
<path d="M377.038 424.861L389.417 433.286L373.304 452.108L382.525 459.347L360.433 474.241L362.923 478.48L341.822 488.088L354.426 477.618L350.776 471.285L368.045 459.112L359.907 452.424L377.038 424.861" fill="#3C1514"/>
<path d="M347.926 447.334L343.138 442.345L357.694 425.547L346.632 422.515L332.587 443.415L338.337 449.403L329.84 468.505L347.926 447.334Z" fill="#3C1514"/>
<path d="M315.311 435.906L318.725 434.787L315.603 422.953L321.564 424.415L323.513 438.071L319.411 439.415L319.123 450.754L315.311 435.906" fill="#3C1514"/>
<path d="M268.706 707.509C265.92 710.184 261.89 710.674 258.15 710.752C252.12 710.886 247.717 707.308 241.967 706.629C241.066 706.528 240.134 706.539 239.315 706.116C237.471 705.168 237.492 701.803 238.134 698.626C238.611 696.152 239.471 693.8 240.123 692.764C242.599 688.841 247.997 686.801 251.685 684.561C255.062 682.51 258.978 680.415 262.687 680.749C263.589 680.838 264.48 681.061 265.35 681.473C267.463 682.477 269.214 684.928 268.665 687.347C268.385 688.562 267.577 689.643 267.619 690.88C267.681 692.307 268.81 693.343 269.649 694.447C272.498 698.169 272.053 704.299 268.706 707.509" fill="#664F37"/>
<path d="M262.646 685.185C262.056 688.885 260.088 692.396 260.502 696.118C260.606 697.043 260.844 697.991 260.554 698.86C260.326 699.518 259.818 700.019 259.3 700.454C255.622 703.486 250.494 703.954 246.039 702.605C243.097 701.712 240.373 700.387 238.135 698.626C238.611 696.152 239.471 693.8 240.124 692.764C242.6 688.84 247.997 686.801 251.686 684.561C255.063 682.51 258.979 680.415 262.688 680.749C262.885 682.22 262.885 683.725 262.646 685.185" fill="#936A45"/>
<path d="M210.484 673.828C210.474 674.753 210.349 675.667 210.08 676.558C209.831 677.383 209.448 678.174 208.837 678.743C208.122 679.389 207.19 679.679 206.278 679.891C200.86 681.195 195.224 681.44 190.676 677.684C189.205 676.469 187.816 674.831 187.702 672.836C187.557 670.618 189.018 668.679 190.5 667.129C191.111 666.483 191.753 665.859 192.468 665.346C192.737 665.145 193.027 664.956 193.317 664.8C196.332 663.128 199.969 663.931 203.273 664.766C204.786 665.145 206.299 665.524 207.811 665.914C208.091 665.981 208.381 666.059 208.609 666.249C208.951 666.516 209.106 666.962 209.241 667.386C209.904 669.459 210.505 671.665 210.484 673.828" fill="#664F37"/>
<path d="M210.485 673.828C208.682 674.786 206.517 674.831 204.466 674.742C201.389 674.608 198.136 674.184 195.691 672.167C193.753 670.573 192.562 667.898 192.469 665.346C192.738 665.145 193.028 664.956 193.318 664.8C196.333 663.128 199.969 663.931 203.274 664.767C204.787 665.145 206.299 665.524 207.812 665.914C208.092 665.981 208.382 666.059 208.61 666.249C208.951 666.516 209.107 666.962 209.242 667.386C209.905 669.459 210.505 671.665 210.485 673.828Z" fill="#936A45"/>
<path d="M329.676 714.441C328.671 716.871 326.485 718.431 324.403 719.869C321.917 721.586 319.285 723.347 316.343 723.581C315.007 723.681 313.67 723.469 312.354 723.235C310.759 722.945 308.428 722.979 307.299 721.753C306.708 721.106 306.304 719.836 306.014 718.576C305.776 717.573 305.61 716.559 305.475 715.868C305.403 715.489 305.33 715.087 305.475 714.731C305.662 714.285 306.138 714.074 306.563 713.895C308.5 713.126 310.448 712.346 312.385 711.566C313.598 711.087 314.872 710.552 315.649 709.437C316.25 708.579 316.488 707.442 317.141 706.617C318.042 705.469 319.555 705.157 320.943 704.968C322.528 704.745 324.175 704.611 325.708 705.103C326.102 705.235 326.475 705.403 326.827 705.625C329.573 707.285 330.982 711.31 329.676 714.441" fill="#664F37"/>
<path d="M327.034 708.735C326.9 710.35 325.626 712.09 324.165 711.7C323.719 711.588 323.326 711.276 322.89 711.131C321.865 710.797 320.642 711.499 320.332 712.602C321.502 712.837 321.782 714.731 321.005 715.69C320.218 716.659 318.892 716.86 317.7 716.771C316.509 716.682 315.317 716.37 314.136 716.604C311.588 717.094 309.36 720.025 306.915 719.1C306.594 718.978 306.294 718.788 306.014 718.576C305.776 717.573 305.61 716.559 305.475 715.868C305.403 715.489 305.33 715.087 305.475 714.731C305.662 714.285 306.138 714.074 306.563 713.895C308.5 713.126 310.448 712.346 312.385 711.566C313.598 711.087 314.872 710.552 315.649 709.437C316.25 708.579 316.488 707.442 317.141 706.617C318.042 705.469 319.555 705.157 320.943 704.968C322.528 704.745 324.175 704.611 325.708 705.103C326.102 705.235 326.475 705.403 326.827 705.625C326.952 706.662 327.128 707.698 327.034 708.735" fill="#936A45"/>
<path d="M145.595 677.326C144.925 676.763 144.15 676.809 143.351 676.821C143.01 676.826 142.605 676.751 142.277 676.847C141.923 676.951 141.669 677.278 141.322 677.404C141.067 677.496 140.787 677.478 140.527 677.551C139.7 677.782 139.263 678.848 138.442 679.101C137.846 679.286 137.226 678.994 136.643 678.763C136.061 678.533 135.359 678.376 134.862 678.776C134.573 679.01 134.421 679.386 134.281 679.746C133.823 680.914 132.796 682.641 132.873 683.942C132.964 685.465 134.801 685.943 135.854 686.965C137.181 688.255 137.35 690.662 138.891 691.637C139.886 692.267 141.198 692.064 142.172 691.402C143.147 690.739 143.836 689.686 144.398 688.604C145.637 686.216 146.379 683.532 146.554 680.805C146.636 679.546 146.52 678.102 145.595 677.326" fill="#664F37"/>
<path d="M145.596 677.326C144.926 676.763 144.151 676.809 143.352 676.821C143.01 676.826 142.606 676.751 142.278 676.847C141.923 676.951 141.67 677.278 141.323 677.404C141.068 677.496 140.788 677.478 140.528 677.551C139.7 677.782 139.264 678.848 138.443 679.101C137.936 679.258 137.412 679.069 136.908 678.868C137.637 682.518 140.296 685.81 142.968 687.247C143.623 687.423 144.245 687.524 144.856 687.594C145.806 685.467 146.403 683.159 146.554 680.805C146.636 679.546 146.52 678.102 145.596 677.326Z" fill="#936A45"/>
<path d="M351.884 709.294L351.916 709.286C352.01 709.114 352.094 708.935 352.195 708.767L351.884 709.294Z" fill="#664F37"/>
<path d="M361.683 708.77C361.865 708.424 362.038 708.075 362.143 707.697C362.322 707.055 362.257 706.269 361.774 705.846C361.485 705.594 361.099 705.516 360.728 705.474C358.538 705.234 356.264 706.091 354.691 707.75C354.498 707.954 354.309 708.174 354.066 708.305C353.773 708.459 353.435 708.467 353.12 708.557C351.328 709.064 350.622 711.972 350.272 713.645C349.972 715.077 350.022 715.828 351.335 716.502C352.515 717.107 353.693 717.713 354.873 718.318C355.363 718.57 355.874 718.827 356.417 718.815C357.256 718.798 357.406 718.309 357.941 717.873C358.372 717.521 358.864 717.746 359.17 717.149C359.851 715.827 360.529 714.503 361.209 713.18C361.348 712.91 361.489 712.621 361.463 712.315C361.435 711.992 361.224 711.725 361.108 711.425C360.868 710.809 361.043 710.094 361.318 709.493C361.429 709.247 361.559 709.008 361.683 708.77" fill="#936A45"/>
<path d="M102.12 116.848C101.841 116.924 101.398 117 100.79 117.076C100.207 117.152 99.6247 117.19 99.042 117.19C98.4593 117.19 97.94 117.139 97.484 117.038C97.0533 116.962 96.686 116.81 96.382 116.582C96.078 116.354 95.85 116.037 95.698 115.632C95.546 115.227 95.47 114.695 95.47 114.036V93.972C95.7487 93.9213 96.192 93.858 96.8 93.782C97.408 93.6807 97.9907 93.63 98.548 93.63C99.1307 93.63 99.6373 93.6807 100.068 93.782C100.524 93.858 100.904 94.01 101.208 94.238C101.512 94.466 101.74 94.7827 101.892 95.188C102.044 95.5933 102.12 96.1253 102.12 96.784V116.848ZM120.918 105.296C120.918 104.511 120.69 103.941 120.234 103.586C119.803 103.206 119.208 103.016 118.448 103.016C117.941 103.016 117.435 103.079 116.928 103.206C116.447 103.333 116.029 103.523 115.674 103.776V116.962C115.421 117.038 115.015 117.114 114.458 117.19C113.926 117.266 113.369 117.304 112.786 117.304C112.229 117.304 111.722 117.266 111.266 117.19C110.835 117.114 110.468 116.962 110.164 116.734C109.86 116.506 109.619 116.202 109.442 115.822C109.29 115.417 109.214 114.897 109.214 114.264V102.864C109.214 102.18 109.353 101.623 109.632 101.192C109.936 100.761 110.341 100.369 110.848 100.014C111.709 99.406 112.786 98.912 114.078 98.532C115.395 98.152 116.852 97.962 118.448 97.962C121.311 97.962 123.515 98.5953 125.06 99.862C126.605 101.103 127.378 102.839 127.378 105.068V116.962C127.125 117.038 126.719 117.114 126.162 117.19C125.63 117.266 125.073 117.304 124.49 117.304C123.933 117.304 123.426 117.266 122.97 117.19C122.539 117.114 122.172 116.962 121.868 116.734C121.564 116.506 121.323 116.202 121.146 115.822C120.994 115.417 120.918 114.897 120.918 114.264V105.296ZM134.104 98.532C134.104 97.24 134.32 96.138 134.75 95.226C135.206 94.2887 135.814 93.5287 136.574 92.946C137.334 92.338 138.221 91.8947 139.234 91.616C140.273 91.3373 141.375 91.198 142.54 91.198C144.415 91.198 145.796 91.4513 146.682 91.958C147.569 92.4393 148.012 93.2753 148.012 94.466C148.012 94.9727 147.898 95.4287 147.67 95.834C147.468 96.2393 147.24 96.5433 146.986 96.746C146.505 96.6193 145.998 96.518 145.466 96.442C144.96 96.3407 144.364 96.29 143.68 96.29C142.591 96.29 141.742 96.48 141.134 96.86C140.526 97.2147 140.222 97.848 140.222 98.76V99.976H146.454C146.606 100.255 146.746 100.609 146.872 101.04C147.024 101.445 147.1 101.901 147.1 102.408C147.1 103.295 146.898 103.941 146.492 104.346C146.112 104.726 145.593 104.916 144.934 104.916H140.564V116.962C140.311 117.038 139.906 117.114 139.348 117.19C138.816 117.266 138.259 117.304 137.676 117.304C137.119 117.304 136.612 117.266 136.156 117.19C135.726 117.114 135.358 116.962 135.054 116.734C134.75 116.506 134.51 116.202 134.332 115.822C134.18 115.417 134.104 114.897 134.104 114.264V98.532ZM160.178 112.896C160.609 112.896 161.078 112.858 161.584 112.782C162.116 112.681 162.509 112.554 162.762 112.402V109.362L160.026 109.59C159.317 109.641 158.734 109.793 158.278 110.046C157.822 110.299 157.594 110.679 157.594 111.186C157.594 111.693 157.784 112.111 158.164 112.44C158.57 112.744 159.241 112.896 160.178 112.896ZM159.874 97.962C161.242 97.962 162.484 98.1013 163.598 98.38C164.738 98.6587 165.701 99.0893 166.486 99.672C167.297 100.229 167.918 100.951 168.348 101.838C168.779 102.699 168.994 103.725 168.994 104.916V113.428C168.994 114.087 168.804 114.631 168.424 115.062C168.07 115.467 167.639 115.822 167.132 116.126C165.486 117.114 163.168 117.608 160.178 117.608C158.836 117.608 157.62 117.481 156.53 117.228C155.466 116.975 154.542 116.595 153.756 116.088C152.996 115.581 152.401 114.935 151.97 114.15C151.565 113.365 151.362 112.453 151.362 111.414C151.362 109.666 151.882 108.323 152.92 107.386C153.959 106.449 155.568 105.866 157.746 105.638L162.724 105.106V104.84C162.724 104.105 162.395 103.586 161.736 103.282C161.103 102.953 160.178 102.788 158.962 102.788C158 102.788 157.062 102.889 156.15 103.092C155.238 103.295 154.415 103.548 153.68 103.852C153.351 103.624 153.072 103.282 152.844 102.826C152.616 102.345 152.502 101.851 152.502 101.344C152.502 100.685 152.654 100.166 152.958 99.786C153.288 99.3807 153.782 99.0387 154.44 98.76C155.175 98.4813 156.036 98.2787 157.024 98.152C158.038 98.0253 158.988 97.962 159.874 97.962ZM193.654 113.656C193.528 114.847 193.173 115.759 192.59 116.392C192.033 117.025 191.21 117.342 190.12 117.342C189.31 117.342 188.588 117.152 187.954 116.772C187.321 116.367 186.637 115.695 185.902 114.758L182.14 110.046V116.962C181.862 117.013 181.444 117.076 180.886 117.152C180.354 117.253 179.81 117.304 179.252 117.304C178.695 117.304 178.188 117.266 177.732 117.19C177.302 117.114 176.934 116.962 176.63 116.734C176.326 116.506 176.086 116.202 175.908 115.822C175.756 115.417 175.68 114.897 175.68 114.264V92.262C175.959 92.186 176.364 92.11 176.896 92.034C177.454 91.9327 178.011 91.882 178.568 91.882C179.126 91.882 179.62 91.92 180.05 91.996C180.506 92.072 180.886 92.224 181.19 92.452C181.494 92.68 181.722 92.9967 181.874 93.402C182.052 93.782 182.14 94.2887 182.14 94.922V104.954L188.676 98.266C189.994 98.266 191.045 98.5573 191.83 99.14C192.641 99.7227 193.046 100.457 193.046 101.344C193.046 101.724 192.983 102.079 192.856 102.408C192.73 102.712 192.527 103.029 192.248 103.358C191.995 103.687 191.653 104.042 191.222 104.422C190.817 104.777 190.336 105.195 189.778 105.676L187.574 107.576L193.654 113.656ZM207.321 112.896C207.751 112.896 208.22 112.858 208.727 112.782C209.259 112.681 209.651 112.554 209.905 112.402V109.362L207.169 109.59C206.459 109.641 205.877 109.793 205.421 110.046C204.965 110.299 204.737 110.679 204.737 111.186C204.737 111.693 204.927 112.111 205.307 112.44C205.712 112.744 206.383 112.896 207.321 112.896ZM207.017 97.962C208.385 97.962 209.626 98.1013 210.741 98.38C211.881 98.6587 212.843 99.0893 213.629 99.672C214.439 100.229 215.06 100.951 215.491 101.838C215.921 102.699 216.137 103.725 216.137 104.916V113.428C216.137 114.087 215.947 114.631 215.567 115.062C215.212 115.467 214.781 115.822 214.275 116.126C212.628 117.114 210.31 117.608 207.321 117.608C205.978 117.608 204.762 117.481 203.673 117.228C202.609 116.975 201.684 116.595 200.899 116.088C200.139 115.581 199.543 114.935 199.113 114.15C198.707 113.365 198.505 112.453 198.505 111.414C198.505 109.666 199.024 108.323 200.063 107.386C201.101 106.449 202.71 105.866 204.889 105.638L209.867 105.106V104.84C209.867 104.105 209.537 103.586 208.879 103.282C208.245 102.953 207.321 102.788 206.105 102.788C205.142 102.788 204.205 102.889 203.293 103.092C202.381 103.295 201.557 103.548 200.823 103.852C200.493 103.624 200.215 103.282 199.987 102.826C199.759 102.345 199.645 101.851 199.645 101.344C199.645 100.685 199.797 100.166 200.101 99.786C200.43 99.3807 200.924 99.0387 201.583 98.76C202.317 98.4813 203.179 98.2787 204.167 98.152C205.18 98.0253 206.13 97.962 207.017 97.962ZM234.451 105.296C234.451 104.511 234.223 103.941 233.767 103.586C233.336 103.206 232.741 103.016 231.981 103.016C231.474 103.016 230.967 103.079 230.461 103.206C229.979 103.333 229.561 103.523 229.207 103.776V116.962C228.953 117.038 228.548 117.114 227.991 117.19C227.459 117.266 226.901 117.304 226.319 117.304C225.761 117.304 225.255 117.266 224.799 117.19C224.368 117.114 224.001 116.962 223.697 116.734C223.393 116.506 223.152 116.202 222.975 115.822C222.823 115.417 222.747 114.897 222.747 114.264V102.864C222.747 102.18 222.886 101.623 223.165 101.192C223.469 100.761 223.874 100.369 224.381 100.014C225.242 99.406 226.319 98.912 227.611 98.532C228.928 98.152 230.385 97.962 231.981 97.962C234.843 97.962 237.047 98.5953 238.593 99.862C240.138 101.103 240.911 102.839 240.911 105.068V116.962C240.657 117.038 240.252 117.114 239.695 117.19C239.163 117.266 238.605 117.304 238.023 117.304C237.465 117.304 236.959 117.266 236.503 117.19C236.072 117.114 235.705 116.962 235.401 116.734C235.097 116.506 234.856 116.202 234.679 115.822C234.527 115.417 234.451 114.897 234.451 114.264V105.296ZM276.068 116.962C275.815 117.038 275.41 117.114 274.852 117.19C274.32 117.266 273.763 117.304 273.18 117.304C272.623 117.304 272.116 117.266 271.66 117.19C271.23 117.114 270.862 116.962 270.558 116.734C270.254 116.506 270.014 116.202 269.836 115.822C269.684 115.417 269.608 114.897 269.608 114.264V105.828C269.608 104.789 269.342 104.067 268.81 103.662C268.304 103.231 267.67 103.016 266.91 103.016C266.404 103.016 265.922 103.079 265.466 103.206C265.01 103.333 264.643 103.485 264.364 103.662V116.962C264.111 117.038 263.706 117.114 263.148 117.19C262.616 117.266 262.059 117.304 261.476 117.304C260.919 117.304 260.412 117.266 259.956 117.19C259.526 117.114 259.158 116.962 258.854 116.734C258.55 116.506 258.31 116.202 258.132 115.822C257.98 115.417 257.904 114.897 257.904 114.264V92.224C258.183 92.1733 258.588 92.11 259.12 92.034C259.678 91.9327 260.235 91.882 260.792 91.882C261.35 91.882 261.844 91.92 262.274 91.996C262.73 92.072 263.11 92.224 263.414 92.452C263.718 92.68 263.946 92.9967 264.098 93.402C264.276 93.782 264.364 94.2887 264.364 94.922V98.646C264.694 98.5193 265.188 98.38 265.846 98.228C266.53 98.0507 267.278 97.962 268.088 97.962C270.596 97.962 272.547 98.5953 273.94 99.862C275.359 101.103 276.068 102.965 276.068 105.448V116.962ZM290.621 112.896C291.051 112.896 291.52 112.858 292.027 112.782C292.559 112.681 292.951 112.554 293.205 112.402V109.362L290.469 109.59C289.759 109.641 289.177 109.793 288.721 110.046C288.265 110.299 288.037 110.679 288.037 111.186C288.037 111.693 288.227 112.111 288.607 112.44C289.012 112.744 289.683 112.896 290.621 112.896ZM290.317 97.962C291.685 97.962 292.926 98.1013 294.041 98.38C295.181 98.6587 296.143 99.0893 296.929 99.672C297.739 100.229 298.36 100.951 298.791 101.838C299.221 102.699 299.437 103.725 299.437 104.916V113.428C299.437 114.087 299.247 114.631 298.867 115.062C298.512 115.467 298.081 115.822 297.575 116.126C295.928 117.114 293.61 117.608 290.621 117.608C289.278 117.608 288.062 117.481 286.973 117.228C285.909 116.975 284.984 116.595 284.199 116.088C283.439 115.581 282.843 114.935 282.413 114.15C282.007 113.365 281.805 112.453 281.805 111.414C281.805 109.666 282.324 108.323 283.363 107.386C284.401 106.449 286.01 105.866 288.189 105.638L293.167 105.106V104.84C293.167 104.105 292.837 103.586 292.179 103.282C291.545 102.953 290.621 102.788 289.405 102.788C288.442 102.788 287.505 102.889 286.593 103.092C285.681 103.295 284.857 103.548 284.123 103.852C283.793 103.624 283.515 103.282 283.287 102.826C283.059 102.345 282.945 101.851 282.945 101.344C282.945 100.685 283.097 100.166 283.401 99.786C283.73 99.3807 284.224 99.0387 284.883 98.76C285.617 98.4813 286.479 98.2787 287.467 98.152C288.48 98.0253 289.43 97.962 290.317 97.962ZM312.507 116.962C312.253 117.038 311.848 117.114 311.291 117.19C310.759 117.266 310.201 117.304 309.619 117.304C309.061 117.304 308.555 117.266 308.099 117.19C307.668 117.114 307.301 116.962 306.997 116.734C306.693 116.506 306.452 116.202 306.275 115.822C306.123 115.417 306.047 114.897 306.047 114.264V102.864C306.047 102.281 306.148 101.787 306.351 101.382C306.579 100.951 306.895 100.571 307.301 100.242C307.706 99.9127 308.2 99.6213 308.783 99.368C309.391 99.0893 310.037 98.8487 310.721 98.646C311.405 98.4433 312.114 98.2913 312.849 98.19C313.583 98.0633 314.318 98 315.053 98C316.269 98 317.231 98.2407 317.941 98.722C318.65 99.178 319.005 99.938 319.005 101.002C319.005 101.357 318.954 101.711 318.853 102.066C318.751 102.395 318.625 102.699 318.473 102.978C317.941 102.978 317.396 103.003 316.839 103.054C316.281 103.105 315.737 103.181 315.205 103.282C314.673 103.383 314.166 103.497 313.685 103.624C313.229 103.725 312.836 103.852 312.507 104.004V116.962ZM330.79 110.654C330.79 111.313 330.992 111.781 331.398 112.06C331.828 112.339 332.424 112.478 333.184 112.478C333.564 112.478 333.956 112.453 334.362 112.402C334.767 112.326 335.122 112.237 335.426 112.136C335.654 112.415 335.844 112.731 335.996 113.086C336.173 113.415 336.262 113.821 336.262 114.302C336.262 115.265 335.894 116.05 335.16 116.658C334.45 117.266 333.184 117.57 331.36 117.57C329.13 117.57 327.408 117.063 326.192 116.05C325.001 115.037 324.406 113.39 324.406 111.11V94.846C324.684 94.77 325.077 94.694 325.584 94.618C326.116 94.5167 326.673 94.466 327.256 94.466C328.37 94.466 329.232 94.6687 329.84 95.074C330.473 95.454 330.79 96.2773 330.79 97.544V99.976H335.768C335.92 100.255 336.059 100.609 336.186 101.04C336.338 101.445 336.414 101.901 336.414 102.408C336.414 103.295 336.211 103.941 335.806 104.346C335.426 104.726 334.906 104.916 334.248 104.916H330.79V110.654ZM350.109 112.896C350.539 112.896 351.008 112.858 351.515 112.782C352.047 112.681 352.439 112.554 352.693 112.402V109.362L349.957 109.59C349.247 109.641 348.665 109.793 348.209 110.046C347.753 110.299 347.525 110.679 347.525 111.186C347.525 111.693 347.715 112.111 348.095 112.44C348.5 112.744 349.171 112.896 350.109 112.896ZM349.805 97.962C351.173 97.962 352.414 98.1013 353.529 98.38C354.669 98.6587 355.631 99.0893 356.417 99.672C357.227 100.229 357.848 100.951 358.279 101.838C358.709 102.699 358.925 103.725 358.925 104.916V113.428C358.925 114.087 358.735 114.631 358.355 115.062C358 115.467 357.569 115.822 357.063 116.126C355.416 117.114 353.098 117.608 350.109 117.608C348.766 117.608 347.55 117.481 346.461 117.228C345.397 116.975 344.472 116.595 343.687 116.088C342.927 115.581 342.331 114.935 341.901 114.15C341.495 113.365 341.293 112.453 341.293 111.414C341.293 109.666 341.812 108.323 342.851 107.386C343.889 106.449 345.498 105.866 347.677 105.638L352.655 105.106V104.84C352.655 104.105 352.325 103.586 351.667 103.282C351.033 102.953 350.109 102.788 348.893 102.788C347.93 102.788 346.993 102.889 346.081 103.092C345.169 103.295 344.345 103.548 343.611 103.852C343.281 103.624 343.003 103.282 342.775 102.826C342.547 102.345 342.433 101.851 342.433 101.344C342.433 100.685 342.585 100.166 342.889 99.786C343.218 99.3807 343.712 99.0387 344.371 98.76C345.105 98.4813 345.967 98.2787 346.955 98.152C347.968 98.0253 348.918 97.962 349.805 97.962ZM101.436 170.654C101.436 171.313 101.639 171.781 102.044 172.06C102.475 172.339 103.07 172.478 103.83 172.478C104.21 172.478 104.603 172.453 105.008 172.402C105.413 172.326 105.768 172.237 106.072 172.136C106.3 172.415 106.49 172.731 106.642 173.086C106.819 173.415 106.908 173.821 106.908 174.302C106.908 175.265 106.541 176.05 105.806 176.658C105.097 177.266 103.83 177.57 102.006 177.57C99.7767 177.57 98.054 177.063 96.838 176.05C95.6473 175.037 95.052 173.39 95.052 171.11V154.846C95.3307 154.77 95.7233 154.694 96.23 154.618C96.762 154.517 97.3193 154.466 97.902 154.466C99.0167 154.466 99.878 154.669 100.486 155.074C101.119 155.454 101.436 156.277 101.436 157.544V159.976H106.414C106.566 160.255 106.705 160.609 106.832 161.04C106.984 161.445 107.06 161.901 107.06 162.408C107.06 163.295 106.857 163.941 106.452 164.346C106.072 164.726 105.553 164.916 104.894 164.916H101.436V170.654ZM122.394 177.608C120.9 177.608 119.506 177.405 118.214 177C116.948 176.569 115.833 175.936 114.87 175.1C113.933 174.264 113.186 173.213 112.628 171.946C112.096 170.679 111.83 169.197 111.83 167.5C111.83 165.828 112.096 164.397 112.628 163.206C113.186 161.99 113.908 161.002 114.794 160.242C115.681 159.457 116.694 158.887 117.834 158.532C118.974 158.152 120.14 157.962 121.33 157.962C122.673 157.962 123.889 158.165 124.978 158.57C126.093 158.975 127.043 159.533 127.828 160.242C128.639 160.951 129.26 161.8 129.69 162.788C130.146 163.776 130.374 164.853 130.374 166.018C130.374 166.879 130.134 167.538 129.652 167.994C129.171 168.45 128.5 168.741 127.638 168.868L118.252 170.274C118.531 171.11 119.101 171.743 119.962 172.174C120.824 172.579 121.812 172.782 122.926 172.782C123.965 172.782 124.94 172.655 125.852 172.402C126.79 172.123 127.55 171.807 128.132 171.452C128.538 171.705 128.88 172.06 129.158 172.516C129.437 172.972 129.576 173.453 129.576 173.96C129.576 175.1 129.044 175.949 127.98 176.506C127.17 176.937 126.258 177.228 125.244 177.38C124.231 177.532 123.281 177.608 122.394 177.608ZM121.33 162.674C120.722 162.674 120.19 162.775 119.734 162.978C119.304 163.181 118.949 163.447 118.67 163.776C118.392 164.08 118.176 164.435 118.024 164.84C117.898 165.22 117.822 165.613 117.796 166.018L124.294 164.954C124.218 164.447 123.94 163.941 123.458 163.434C122.977 162.927 122.268 162.674 121.33 162.674ZM142.604 176.962C142.35 177.038 141.945 177.114 141.388 177.19C140.856 177.266 140.298 177.304 139.716 177.304C139.158 177.304 138.652 177.266 138.196 177.19C137.765 177.114 137.398 176.962 137.094 176.734C136.79 176.506 136.549 176.202 136.372 175.822C136.22 175.417 136.144 174.897 136.144 174.264V162.864C136.144 162.281 136.245 161.787 136.448 161.382C136.676 160.951 136.992 160.571 137.398 160.242C137.803 159.913 138.297 159.621 138.88 159.368C139.488 159.089 140.134 158.849 140.818 158.646C141.502 158.443 142.211 158.291 142.946 158.19C143.68 158.063 144.415 158 145.15 158C146.366 158 147.328 158.241 148.038 158.722C148.747 159.178 149.102 159.938 149.102 161.002C149.102 161.357 149.051 161.711 148.95 162.066C148.848 162.395 148.722 162.699 148.57 162.978C148.038 162.978 147.493 163.003 146.936 163.054C146.378 163.105 145.834 163.181 145.302 163.282C144.77 163.383 144.263 163.497 143.782 163.624C143.326 163.725 142.933 163.852 142.604 164.004V176.962ZM154.503 152.262C154.756 152.186 155.161 152.11 155.719 152.034C156.276 151.933 156.846 151.882 157.429 151.882C157.986 151.882 158.48 151.92 158.911 151.996C159.367 152.072 159.747 152.224 160.051 152.452C160.355 152.68 160.583 152.997 160.735 153.402C160.887 153.782 160.963 154.289 160.963 154.922V158.646C161.596 158.393 162.191 158.215 162.749 158.114C163.331 158.013 163.965 157.962 164.649 157.962C165.865 157.962 167.017 158.177 168.107 158.608C169.196 159.039 170.159 159.672 170.995 160.508C171.831 161.319 172.489 162.332 172.971 163.548C173.452 164.764 173.693 166.17 173.693 167.766C173.693 169.413 173.439 170.857 172.933 172.098C172.451 173.314 171.767 174.327 170.881 175.138C169.994 175.949 168.905 176.569 167.613 177C166.346 177.405 164.94 177.608 163.395 177.608C161.723 177.608 160.304 177.405 159.139 177C157.973 176.62 156.985 176.139 156.175 175.556C155.06 174.771 154.503 173.757 154.503 172.516V152.262ZM163.395 172.516C164.56 172.516 165.459 172.123 166.093 171.338C166.751 170.527 167.081 169.337 167.081 167.766C167.081 166.17 166.751 164.979 166.093 164.194C165.434 163.409 164.547 163.016 163.433 163.016C162.926 163.016 162.483 163.067 162.103 163.168C161.748 163.269 161.355 163.421 160.925 163.624V171.908C161.203 172.085 161.533 172.237 161.913 172.364C162.318 172.465 162.812 172.516 163.395 172.516ZM187.479 172.896C187.91 172.896 188.378 172.858 188.885 172.782C189.417 172.681 189.81 172.554 190.063 172.402V169.362L187.327 169.59C186.618 169.641 186.035 169.793 185.579 170.046C185.123 170.299 184.895 170.679 184.895 171.186C184.895 171.693 185.085 172.111 185.465 172.44C185.87 172.744 186.542 172.896 187.479 172.896ZM187.175 157.962C188.543 157.962 189.784 158.101 190.899 158.38C192.039 158.659 193.002 159.089 193.787 159.672C194.598 160.229 195.218 160.951 195.649 161.838C196.08 162.699 196.295 163.725 196.295 164.916V173.428C196.295 174.087 196.105 174.631 195.725 175.062C195.37 175.467 194.94 175.822 194.433 176.126C192.786 177.114 190.468 177.608 187.479 177.608C186.136 177.608 184.92 177.481 183.831 177.228C182.767 176.975 181.842 176.595 181.057 176.088C180.297 175.581 179.702 174.935 179.271 174.15C178.866 173.365 178.663 172.453 178.663 171.414C178.663 169.666 179.182 168.323 180.221 167.386C181.26 166.449 182.868 165.866 185.047 165.638L190.025 165.106V164.84C190.025 164.105 189.696 163.586 189.037 163.282C188.404 162.953 187.479 162.788 186.263 162.788C185.3 162.788 184.363 162.889 183.451 163.092C182.539 163.295 181.716 163.548 180.981 163.852C180.652 163.624 180.373 163.282 180.145 162.826C179.917 162.345 179.803 161.851 179.803 161.344C179.803 160.685 179.955 160.166 180.259 159.786C180.588 159.381 181.082 159.039 181.741 158.76C182.476 158.481 183.337 158.279 184.325 158.152C185.338 158.025 186.288 157.962 187.175 157.962ZM202.753 153.402C202.753 152.439 203.07 151.629 203.703 150.97C204.362 150.311 205.223 149.982 206.287 149.982C207.351 149.982 208.2 150.311 208.833 150.97C209.492 151.629 209.821 152.439 209.821 153.402C209.821 154.365 209.492 155.175 208.833 155.834C208.2 156.493 207.351 156.822 206.287 156.822C205.223 156.822 204.362 156.493 203.703 155.834C203.07 155.175 202.753 154.365 202.753 153.402ZM209.517 176.962C209.238 177.013 208.82 177.076 208.263 177.152C207.731 177.253 207.186 177.304 206.629 177.304C206.072 177.304 205.565 177.266 205.109 177.19C204.678 177.114 204.311 176.962 204.007 176.734C203.703 176.506 203.462 176.202 203.285 175.822C203.133 175.417 203.057 174.897 203.057 174.264V158.798C203.336 158.747 203.741 158.684 204.273 158.608C204.83 158.507 205.388 158.456 205.945 158.456C206.502 158.456 206.996 158.494 207.427 158.57C207.883 158.646 208.263 158.798 208.567 159.026C208.871 159.254 209.099 159.571 209.251 159.976C209.428 160.356 209.517 160.863 209.517 161.496V176.962ZM234.34 173.656C234.213 174.847 233.858 175.759 233.276 176.392C232.718 177.025 231.895 177.342 230.806 177.342C229.995 177.342 229.273 177.152 228.64 176.772C228.006 176.367 227.322 175.695 226.588 174.758L222.826 170.046V176.962C222.547 177.013 222.129 177.076 221.572 177.152C221.04 177.253 220.495 177.304 219.938 177.304C219.38 177.304 218.874 177.266 218.418 177.19C217.987 177.114 217.62 176.962 217.316 176.734C217.012 176.506 216.771 176.202 216.594 175.822C216.442 175.417 216.366 174.897 216.366 174.264V152.262C216.644 152.186 217.05 152.11 217.582 152.034C218.139 151.933 218.696 151.882 219.254 151.882C219.811 151.882 220.305 151.92 220.736 151.996C221.192 152.072 221.572 152.224 221.876 152.452C222.18 152.68 222.408 152.997 222.56 153.402C222.737 153.782 222.826 154.289 222.826 154.922V164.954L229.362 158.266C230.679 158.266 231.73 158.557 232.516 159.14C233.326 159.723 233.732 160.457 233.732 161.344C233.732 161.724 233.668 162.079 233.542 162.408C233.415 162.712 233.212 163.029 232.934 163.358C232.68 163.687 232.338 164.042 231.908 164.422C231.502 164.777 231.021 165.195 230.464 165.676L228.26 167.576L234.34 173.656ZM248.882 157.962C249.92 157.962 250.934 158.114 251.922 158.418C252.935 158.697 253.809 159.127 254.544 159.71C255.304 159.203 256.152 158.785 257.09 158.456C258.052 158.127 259.205 157.962 260.548 157.962C261.51 157.962 262.448 158.089 263.36 158.342C264.297 158.595 265.12 159.001 265.83 159.558C266.564 160.09 267.147 160.812 267.578 161.724C268.008 162.611 268.224 163.7 268.224 164.992V176.962C267.97 177.038 267.565 177.114 267.008 177.19C266.476 177.266 265.918 177.304 265.336 177.304C264.778 177.304 264.272 177.266 263.816 177.19C263.385 177.114 263.018 176.962 262.714 176.734C262.41 176.506 262.169 176.202 261.992 175.822C261.84 175.417 261.764 174.897 261.764 174.264V165.182C261.764 164.422 261.548 163.877 261.118 163.548C260.687 163.193 260.104 163.016 259.37 163.016C259.015 163.016 258.635 163.105 258.23 163.282C257.824 163.434 257.52 163.599 257.318 163.776C257.343 163.877 257.356 163.979 257.356 164.08C257.356 164.156 257.356 164.232 257.356 164.308V176.962C257.077 177.038 256.659 177.114 256.102 177.19C255.57 177.266 255.025 177.304 254.468 177.304C253.91 177.304 253.404 177.266 252.948 177.19C252.517 177.114 252.15 176.962 251.846 176.734C251.542 176.506 251.301 176.202 251.124 175.822C250.972 175.417 250.896 174.897 250.896 174.264V165.182C250.896 164.422 250.655 163.877 250.174 163.548C249.718 163.193 249.16 163.016 248.502 163.016C248.046 163.016 247.653 163.092 247.324 163.244C246.994 163.371 246.716 163.497 246.488 163.624V176.962C246.234 177.038 245.829 177.114 245.272 177.19C244.74 177.266 244.182 177.304 243.6 177.304C243.042 177.304 242.536 177.266 242.08 177.19C241.649 177.114 241.282 176.962 240.978 176.734C240.674 176.506 240.433 176.202 240.256 175.822C240.104 175.417 240.028 174.897 240.028 174.264V162.788C240.028 162.104 240.167 161.559 240.446 161.154C240.75 160.749 241.155 160.369 241.662 160.014C242.523 159.406 243.587 158.912 244.854 158.532C246.146 158.152 247.488 157.962 248.882 157.962ZM274.824 158.798C275.078 158.722 275.47 158.646 276.002 158.57C276.56 158.494 277.13 158.456 277.712 158.456C278.27 158.456 278.764 158.494 279.194 158.57C279.65 158.646 280.03 158.798 280.334 159.026C280.638 159.254 280.866 159.571 281.018 159.976C281.196 160.356 281.284 160.863 281.284 161.496V169.666C281.284 170.705 281.538 171.452 282.044 171.908C282.551 172.339 283.286 172.554 284.248 172.554C284.831 172.554 285.3 172.503 285.654 172.402C286.034 172.301 286.326 172.199 286.528 172.098V158.798C286.782 158.722 287.174 158.646 287.706 158.57C288.264 158.494 288.834 158.456 289.416 158.456C289.974 158.456 290.468 158.494 290.898 158.57C291.354 158.646 291.734 158.798 292.038 159.026C292.342 159.254 292.57 159.571 292.722 159.976C292.9 160.356 292.988 160.863 292.988 161.496V173.048C292.988 174.315 292.456 175.265 291.392 175.898C290.506 176.455 289.442 176.873 288.2 177.152C286.984 177.456 285.654 177.608 284.21 177.608C282.842 177.608 281.576 177.456 280.41 177.152C279.27 176.848 278.282 176.379 277.446 175.746C276.61 175.113 275.964 174.302 275.508 173.314C275.052 172.301 274.824 171.085 274.824 169.666V158.798ZM94.976 218.798C95.2293 218.722 95.622 218.646 96.154 218.57C96.7113 218.494 97.2813 218.456 97.864 218.456C98.4213 218.456 98.9153 218.494 99.346 218.57C99.802 218.646 100.182 218.798 100.486 219.026C100.79 219.254 101.018 219.571 101.17 219.976C101.347 220.356 101.436 220.863 101.436 221.496V229.666C101.436 230.705 101.689 231.452 102.196 231.908C102.703 232.339 103.437 232.554 104.4 232.554C104.983 232.554 105.451 232.503 105.806 232.402C106.186 232.301 106.477 232.199 106.68 232.098V218.798C106.933 218.722 107.326 218.646 107.858 218.57C108.415 218.494 108.985 218.456 109.568 218.456C110.125 218.456 110.619 218.494 111.05 218.57C111.506 218.646 111.886 218.798 112.19 219.026C112.494 219.254 112.722 219.571 112.874 219.976C113.051 220.356 113.14 220.863 113.14 221.496V233.048C113.14 234.315 112.608 235.265 111.544 235.898C110.657 236.455 109.593 236.873 108.352 237.152C107.136 237.456 105.806 237.608 104.362 237.608C102.994 237.608 101.727 237.456 100.562 237.152C99.422 236.848 98.434 236.379 97.598 235.746C96.762 235.113 96.116 234.302 95.66 233.314C95.204 232.301 94.976 231.085 94.976 229.666V218.798ZM131.457 225.296C131.457 224.511 131.229 223.941 130.773 223.586C130.343 223.206 129.747 223.016 128.987 223.016C128.481 223.016 127.974 223.079 127.467 223.206C126.986 223.333 126.568 223.523 126.213 223.776V236.962C125.96 237.038 125.555 237.114 124.997 237.19C124.465 237.266 123.908 237.304 123.325 237.304C122.768 237.304 122.261 237.266 121.805 237.19C121.375 237.114 121.007 236.962 120.703 236.734C120.399 236.506 120.159 236.202 119.981 235.822C119.829 235.417 119.753 234.897 119.753 234.264V222.864C119.753 222.18 119.893 221.623 120.171 221.192C120.475 220.761 120.881 220.369 121.387 220.014C122.249 219.406 123.325 218.912 124.617 218.532C125.935 218.152 127.391 217.962 128.987 217.962C131.85 217.962 134.054 218.595 135.599 219.862C137.145 221.103 137.917 222.839 137.917 225.068V236.962C137.664 237.038 137.259 237.114 136.701 237.19C136.169 237.266 135.612 237.304 135.029 237.304C134.472 237.304 133.965 237.266 133.509 237.19C133.079 237.114 132.711 236.962 132.407 236.734C132.103 236.506 131.863 236.202 131.685 235.822C131.533 235.417 131.457 234.897 131.457 234.264V225.296ZM151.027 230.654C151.027 231.313 151.23 231.781 151.635 232.06C152.066 232.339 152.661 232.478 153.421 232.478C153.801 232.478 154.194 232.453 154.599 232.402C155.005 232.326 155.359 232.237 155.663 232.136C155.891 232.415 156.081 232.731 156.233 233.086C156.411 233.415 156.499 233.821 156.499 234.302C156.499 235.265 156.132 236.05 155.397 236.658C154.688 237.266 153.421 237.57 151.597 237.57C149.368 237.57 147.645 237.063 146.429 236.05C145.239 235.037 144.643 233.39 144.643 231.11V214.846C144.922 214.77 145.315 214.694 145.821 214.618C146.353 214.517 146.911 214.466 147.493 214.466C148.608 214.466 149.469 214.669 150.077 215.074C150.711 215.454 151.027 216.277 151.027 217.544V219.976H156.005C156.157 220.255 156.297 220.609 156.423 221.04C156.575 221.445 156.651 221.901 156.651 222.408C156.651 223.295 156.449 223.941 156.043 224.346C155.663 224.726 155.144 224.916 154.485 224.916H151.027V230.654ZM162.442 218.798C162.696 218.722 163.088 218.646 163.62 218.57C164.178 218.494 164.748 218.456 165.33 218.456C165.888 218.456 166.382 218.494 166.812 218.57C167.268 218.646 167.648 218.798 167.952 219.026C168.256 219.254 168.484 219.571 168.636 219.976C168.814 220.356 168.902 220.863 168.902 221.496V229.666C168.902 230.705 169.156 231.452 169.662 231.908C170.169 232.339 170.904 232.554 171.866 232.554C172.449 232.554 172.918 232.503 173.272 232.402C173.652 232.301 173.944 232.199 174.146 232.098V218.798C174.4 218.722 174.792 218.646 175.324 218.57C175.882 218.494 176.452 218.456 177.034 218.456C177.592 218.456 178.086 218.494 178.516 218.57C178.972 218.646 179.352 218.798 179.656 219.026C179.96 219.254 180.188 219.571 180.34 219.976C180.518 220.356 180.606 220.863 180.606 221.496V233.048C180.606 234.315 180.074 235.265 179.01 235.898C178.124 236.455 177.06 236.873 175.818 237.152C174.602 237.456 173.272 237.608 171.828 237.608C170.46 237.608 169.194 237.456 168.028 237.152C166.888 236.848 165.9 236.379 165.064 235.746C164.228 235.113 163.582 234.302 163.126 233.314C162.67 232.301 162.442 231.085 162.442 229.666V218.798ZM205.27 233.656C205.143 234.847 204.788 235.759 204.206 236.392C203.648 237.025 202.825 237.342 201.736 237.342C200.925 237.342 200.203 237.152 199.57 236.772C198.936 236.367 198.252 235.695 197.518 234.758L193.756 230.046V236.962C193.477 237.013 193.059 237.076 192.502 237.152C191.97 237.253 191.425 237.304 190.868 237.304C190.31 237.304 189.804 237.266 189.348 237.19C188.917 237.114 188.55 236.962 188.246 236.734C187.942 236.506 187.701 236.202 187.524 235.822C187.372 235.417 187.296 234.897 187.296 234.264V212.262C187.574 212.186 187.98 212.11 188.512 212.034C189.069 211.933 189.626 211.882 190.184 211.882C190.741 211.882 191.235 211.92 191.666 211.996C192.122 212.072 192.502 212.224 192.806 212.452C193.11 212.68 193.338 212.997 193.49 213.402C193.667 213.782 193.756 214.289 193.756 214.922V224.954L200.292 218.266C201.609 218.266 202.66 218.557 203.446 219.14C204.256 219.723 204.662 220.457 204.662 221.344C204.662 221.724 204.598 222.079 204.472 222.408C204.345 222.712 204.142 223.029 203.864 223.358C203.61 223.687 203.268 224.042 202.838 224.422C202.432 224.777 201.951 225.195 201.394 225.676L199.19 227.576L205.27 233.656ZM221.073 213.402C221.073 212.439 221.39 211.629 222.023 210.97C222.682 210.311 223.543 209.982 224.607 209.982C225.671 209.982 226.52 210.311 227.153 210.97C227.812 211.629 228.141 212.439 228.141 213.402C228.141 214.365 227.812 215.175 227.153 215.834C226.52 216.493 225.671 216.822 224.607 216.822C223.543 216.822 222.682 216.493 222.023 215.834C221.39 215.175 221.073 214.365 221.073 213.402ZM227.837 236.962C227.558 237.013 227.14 237.076 226.583 237.152C226.051 237.253 225.506 237.304 224.949 237.304C224.392 237.304 223.885 237.266 223.429 237.19C222.998 237.114 222.631 236.962 222.327 236.734C222.023 236.506 221.782 236.202 221.605 235.822C221.453 235.417 221.377 234.897 221.377 234.264V218.798C221.656 218.747 222.061 218.684 222.593 218.608C223.15 218.507 223.708 218.456 224.265 218.456C224.822 218.456 225.316 218.494 225.747 218.57C226.203 218.646 226.583 218.798 226.887 219.026C227.191 219.254 227.419 219.571 227.571 219.976C227.748 220.356 227.837 220.863 227.837 221.496V236.962ZM241.184 236.962C240.905 237.013 240.487 237.076 239.93 237.152C239.398 237.253 238.853 237.304 238.296 237.304C237.738 237.304 237.232 237.266 236.776 237.19C236.345 237.114 235.978 236.962 235.674 236.734C235.37 236.506 235.129 236.202 234.952 235.822C234.8 235.417 234.724 234.897 234.724 234.264V212.224C235.002 212.173 235.408 212.11 235.94 212.034C236.497 211.933 237.054 211.882 237.612 211.882C238.169 211.882 238.663 211.92 239.094 211.996C239.55 212.072 239.93 212.224 240.234 212.452C240.538 212.68 240.766 212.997 240.918 213.402C241.095 213.782 241.184 214.289 241.184 214.922V236.962ZM256.774 217.962C257.813 217.962 258.826 218.114 259.814 218.418C260.827 218.697 261.701 219.127 262.436 219.71C263.196 219.203 264.045 218.785 264.982 218.456C265.945 218.127 267.097 217.962 268.44 217.962C269.403 217.962 270.34 218.089 271.252 218.342C272.189 218.595 273.013 219.001 273.722 219.558C274.457 220.09 275.039 220.812 275.47 221.724C275.901 222.611 276.116 223.7 276.116 224.992V236.962C275.863 237.038 275.457 237.114 274.9 237.19C274.368 237.266 273.811 237.304 273.228 237.304C272.671 237.304 272.164 237.266 271.708 237.19C271.277 237.114 270.91 236.962 270.606 236.734C270.302 236.506 270.061 236.202 269.884 235.822C269.732 235.417 269.656 234.897 269.656 234.264V225.182C269.656 224.422 269.441 223.877 269.01 223.548C268.579 223.193 267.997 223.016 267.262 223.016C266.907 223.016 266.527 223.105 266.122 223.282C265.717 223.434 265.413 223.599 265.21 223.776C265.235 223.877 265.248 223.979 265.248 224.08C265.248 224.156 265.248 224.232 265.248 224.308V236.962C264.969 237.038 264.551 237.114 263.994 237.19C263.462 237.266 262.917 237.304 262.36 237.304C261.803 237.304 261.296 237.266 260.84 237.19C260.409 237.114 260.042 236.962 259.738 236.734C259.434 236.506 259.193 236.202 259.016 235.822C258.864 235.417 258.788 234.897 258.788 234.264V225.182C258.788 224.422 258.547 223.877 258.066 223.548C257.61 223.193 257.053 223.016 256.394 223.016C255.938 223.016 255.545 223.092 255.216 223.244C254.887 223.371 254.608 223.497 254.38 223.624V236.962C254.127 237.038 253.721 237.114 253.164 237.19C252.632 237.266 252.075 237.304 251.492 237.304C250.935 237.304 250.428 237.266 249.972 237.19C249.541 237.114 249.174 236.962 248.87 236.734C248.566 236.506 248.325 236.202 248.148 235.822C247.996 235.417 247.92 234.897 247.92 234.264V222.788C247.92 222.104 248.059 221.559 248.338 221.154C248.642 220.749 249.047 220.369 249.554 220.014C250.415 219.406 251.479 218.912 252.746 218.532C254.038 218.152 255.381 217.962 256.774 217.962ZM282.717 218.798C282.97 218.722 283.363 218.646 283.895 218.57C284.452 218.494 285.022 218.456 285.605 218.456C286.162 218.456 286.656 218.494 287.087 218.57C287.543 218.646 287.923 218.798 288.227 219.026C288.531 219.254 288.759 219.571 288.911 219.976C289.088 220.356 289.177 220.863 289.177 221.496V229.666C289.177 230.705 289.43 231.452 289.937 231.908C290.443 232.339 291.178 232.554 292.141 232.554C292.723 232.554 293.192 232.503 293.547 232.402C293.927 232.301 294.218 232.199 294.421 232.098V218.798C294.674 218.722 295.067 218.646 295.599 218.57C296.156 218.494 296.726 218.456 297.309 218.456C297.866 218.456 298.36 218.494 298.791 218.57C299.247 218.646 299.627 218.798 299.931 219.026C300.235 219.254 300.463 219.571 300.615 219.976C300.792 220.356 300.881 220.863 300.881 221.496V233.048C300.881 234.315 300.349 235.265 299.285 235.898C298.398 236.455 297.334 236.873 296.093 237.152C294.877 237.456 293.547 237.608 292.103 237.608C290.735 237.608 289.468 237.456 288.303 237.152C287.163 236.848 286.175 236.379 285.339 235.746C284.503 235.113 283.857 234.302 283.401 233.314C282.945 232.301 282.717 231.085 282.717 229.666V218.798ZM316.963 227.766C316.963 226.094 317.217 224.65 317.723 223.434C318.23 222.193 318.927 221.167 319.813 220.356C320.725 219.545 321.777 218.95 322.967 218.57C324.183 218.165 325.488 217.962 326.881 217.962C327.388 217.962 327.882 218.013 328.363 218.114C328.845 218.19 329.237 218.291 329.541 218.418V212.262C329.795 212.186 330.2 212.11 330.757 212.034C331.315 211.933 331.885 211.882 332.467 211.882C333.025 211.882 333.519 211.92 333.949 211.996C334.405 212.072 334.785 212.224 335.089 212.452C335.393 212.68 335.621 212.997 335.773 213.402C335.925 213.782 336.001 214.289 336.001 214.922V232.934C336.001 234.125 335.444 235.075 334.329 235.784C333.595 236.265 332.645 236.683 331.479 237.038C330.314 237.418 328.971 237.608 327.451 237.608C325.805 237.608 324.323 237.38 323.005 236.924C321.713 236.468 320.611 235.809 319.699 234.948C318.813 234.087 318.129 233.061 317.647 231.87C317.191 230.654 316.963 229.286 316.963 227.766ZM327.755 223.016C326.387 223.016 325.336 223.409 324.601 224.194C323.867 224.979 323.499 226.17 323.499 227.766C323.499 229.337 323.841 230.527 324.525 231.338C325.209 232.123 326.197 232.516 327.489 232.516C327.945 232.516 328.351 232.453 328.705 232.326C329.085 232.174 329.377 232.009 329.579 231.832V223.472C329.073 223.168 328.465 223.016 327.755 223.016ZM350.591 232.896C351.022 232.896 351.49 232.858 351.997 232.782C352.529 232.681 352.922 232.554 353.175 232.402V229.362L350.439 229.59C349.73 229.641 349.147 229.793 348.691 230.046C348.235 230.299 348.007 230.679 348.007 231.186C348.007 231.693 348.197 232.111 348.577 232.44C348.982 232.744 349.654 232.896 350.591 232.896ZM350.287 217.962C351.655 217.962 352.896 218.101 354.011 218.38C355.151 218.659 356.114 219.089 356.899 219.672C357.71 220.229 358.33 220.951 358.761 221.838C359.192 222.699 359.407 223.725 359.407 224.916V233.428C359.407 234.087 359.217 234.631 358.837 235.062C358.482 235.467 358.052 235.822 357.545 236.126C355.898 237.114 353.58 237.608 350.591 237.608C349.248 237.608 348.032 237.481 346.943 237.228C345.879 236.975 344.954 236.595 344.169 236.088C343.409 235.581 342.814 234.935 342.383 234.15C341.978 233.365 341.775 232.453 341.775 231.414C341.775 229.666 342.294 228.323 343.333 227.386C344.372 226.449 345.98 225.866 348.159 225.638L353.137 225.106V224.84C353.137 224.105 352.808 223.586 352.149 223.282C351.516 222.953 350.591 222.788 349.375 222.788C348.412 222.788 347.475 222.889 346.563 223.092C345.651 223.295 344.828 223.548 344.093 223.852C343.764 223.624 343.485 223.282 343.257 222.826C343.029 222.345 342.915 221.851 342.915 221.344C342.915 220.685 343.067 220.166 343.371 219.786C343.7 219.381 344.194 219.039 344.853 218.76C345.588 218.481 346.449 218.279 347.437 218.152C348.45 218.025 349.4 217.962 350.287 217.962ZM377.721 225.296C377.721 224.511 377.493 223.941 377.037 223.586C376.606 223.206 376.011 223.016 375.251 223.016C374.744 223.016 374.238 223.079 373.731 223.206C373.25 223.333 372.832 223.523 372.477 223.776V236.962C372.224 237.038 371.818 237.114 371.261 237.19C370.729 237.266 370.172 237.304 369.589 237.304C369.032 237.304 368.525 237.266 368.069 237.19C367.638 237.114 367.271 236.962 366.967 236.734C366.663 236.506 366.422 236.202 366.245 235.822C366.093 235.417 366.017 234.897 366.017 234.264V222.864C366.017 222.18 366.156 221.623 366.435 221.192C366.739 220.761 367.144 220.369 367.651 220.014C368.512 219.406 369.589 218.912 370.881 218.532C372.198 218.152 373.655 217.962 375.251 217.962C378.114 217.962 380.318 218.595 381.863 219.862C383.408 221.103 384.181 222.839 384.181 225.068V236.962C383.928 237.038 383.522 237.114 382.965 237.19C382.433 237.266 381.876 237.304 381.293 237.304C380.736 237.304 380.229 237.266 379.773 237.19C379.342 237.114 378.975 236.962 378.671 236.734C378.367 236.506 378.126 236.202 377.949 235.822C377.797 235.417 377.721 234.897 377.721 234.264V225.296ZM103.45 277.962C104.97 277.962 106.376 278.165 107.668 278.57C108.985 278.95 110.113 279.545 111.05 280.356C111.987 281.167 112.722 282.193 113.254 283.434C113.786 284.65 114.052 286.107 114.052 287.804C114.052 289.425 113.824 290.844 113.368 292.06C112.912 293.276 112.266 294.302 111.43 295.138C110.594 295.949 109.581 296.557 108.39 296.962C107.225 297.367 105.92 297.57 104.476 297.57C103.387 297.57 102.373 297.405 101.436 297.076V303.384C101.183 303.46 100.777 303.536 100.22 303.612C99.6627 303.713 99.0927 303.764 98.51 303.764C97.9527 303.764 97.446 303.726 96.99 303.65C96.5593 303.574 96.192 303.422 95.888 303.194C95.584 302.966 95.356 302.649 95.204 302.244C95.052 301.864 94.976 301.357 94.976 300.724V282.484C94.976 281.8 95.1153 281.243 95.394 280.812C95.698 280.381 96.1033 279.989 96.61 279.634C97.3953 279.127 98.3707 278.722 99.536 278.418C100.701 278.114 102.006 277.962 103.45 277.962ZM103.526 292.478C106.135 292.478 107.44 290.92 107.44 287.804C107.44 286.183 107.111 284.979 106.452 284.194C105.819 283.409 104.894 283.016 103.678 283.016C103.197 283.016 102.766 283.079 102.386 283.206C102.006 283.307 101.677 283.434 101.398 283.586V291.946C101.702 292.098 102.031 292.225 102.386 292.326C102.741 292.427 103.121 292.478 103.526 292.478ZM127.843 292.896C128.273 292.896 128.742 292.858 129.249 292.782C129.781 292.681 130.173 292.554 130.427 292.402V289.362L127.691 289.59C126.981 289.641 126.399 289.793 125.943 290.046C125.487 290.299 125.259 290.679 125.259 291.186C125.259 291.693 125.449 292.111 125.829 292.44C126.234 292.744 126.905 292.896 127.843 292.896ZM127.539 277.962C128.907 277.962 130.148 278.101 131.263 278.38C132.403 278.659 133.365 279.089 134.151 279.672C134.961 280.229 135.582 280.951 136.013 281.838C136.443 282.699 136.659 283.725 136.659 284.916V293.428C136.659 294.087 136.469 294.631 136.089 295.062C135.734 295.467 135.303 295.822 134.797 296.126C133.15 297.114 130.832 297.608 127.843 297.608C126.5 297.608 125.284 297.481 124.195 297.228C123.131 296.975 122.206 296.595 121.421 296.088C120.661 295.581 120.065 294.935 119.635 294.15C119.229 293.365 119.027 292.453 119.027 291.414C119.027 289.666 119.546 288.323 120.585 287.386C121.623 286.449 123.232 285.866 125.411 285.638L130.389 285.106V284.84C130.389 284.105 130.059 283.586 129.401 283.282C128.767 282.953 127.843 282.788 126.627 282.788C125.664 282.788 124.727 282.889 123.815 283.092C122.903 283.295 122.079 283.548 121.345 283.852C121.015 283.624 120.737 283.282 120.509 282.826C120.281 282.345 120.167 281.851 120.167 281.344C120.167 280.685 120.319 280.166 120.623 279.786C120.952 279.381 121.446 279.039 122.105 278.76C122.839 278.481 123.701 278.279 124.689 278.152C125.702 278.025 126.652 277.962 127.539 277.962ZM161.509 296.962C161.255 297.038 160.85 297.114 160.293 297.19C159.761 297.266 159.203 297.304 158.621 297.304C158.063 297.304 157.557 297.266 157.101 297.19C156.67 297.114 156.303 296.962 155.999 296.734C155.695 296.506 155.454 296.202 155.277 295.822C155.125 295.417 155.049 294.897 155.049 294.264V285.828C155.049 284.789 154.783 284.067 154.251 283.662C153.744 283.231 153.111 283.016 152.351 283.016C151.844 283.016 151.363 283.079 150.907 283.206C150.451 283.333 150.083 283.485 149.805 283.662V296.962C149.551 297.038 149.146 297.114 148.589 297.19C148.057 297.266 147.499 297.304 146.917 297.304C146.359 297.304 145.853 297.266 145.397 297.19C144.966 297.114 144.599 296.962 144.295 296.734C143.991 296.506 143.75 296.202 143.573 295.822C143.421 295.417 143.345 294.897 143.345 294.264V272.224C143.623 272.173 144.029 272.11 144.561 272.034C145.118 271.933 145.675 271.882 146.233 271.882C146.79 271.882 147.284 271.92 147.715 271.996C148.171 272.072 148.551 272.224 148.855 272.452C149.159 272.68 149.387 272.997 149.539 273.402C149.716 273.782 149.805 274.289 149.805 274.922V278.646C150.134 278.519 150.628 278.38 151.287 278.228C151.971 278.051 152.718 277.962 153.529 277.962C156.037 277.962 157.987 278.595 159.381 279.862C160.799 281.103 161.509 282.965 161.509 285.448V296.962ZM176.061 292.896C176.492 292.896 176.961 292.858 177.467 292.782C177.999 292.681 178.392 292.554 178.645 292.402V289.362L175.909 289.59C175.2 289.641 174.617 289.793 174.161 290.046C173.705 290.299 173.477 290.679 173.477 291.186C173.477 291.693 173.667 292.111 174.047 292.44C174.453 292.744 175.124 292.896 176.061 292.896ZM175.757 277.962C177.125 277.962 178.367 278.101 179.481 278.38C180.621 278.659 181.584 279.089 182.369 279.672C183.18 280.229 183.801 280.951 184.231 281.838C184.662 282.699 184.877 283.725 184.877 284.916V293.428C184.877 294.087 184.687 294.631 184.307 295.062C183.953 295.467 183.522 295.822 183.015 296.126C181.369 297.114 179.051 297.608 176.061 297.608C174.719 297.608 173.503 297.481 172.413 297.228C171.349 296.975 170.425 296.595 169.639 296.088C168.879 295.581 168.284 294.935 167.853 294.15C167.448 293.365 167.245 292.453 167.245 291.414C167.245 289.666 167.765 288.323 168.803 287.386C169.842 286.449 171.451 285.866 173.629 285.638L178.607 285.106V284.84C178.607 284.105 178.278 283.586 177.619 283.282C176.986 282.953 176.061 282.788 174.845 282.788C173.883 282.788 172.945 282.889 172.033 283.092C171.121 283.295 170.298 283.548 169.563 283.852C169.234 283.624 168.955 283.282 168.727 282.826C168.499 282.345 168.385 281.851 168.385 281.344C168.385 280.685 168.537 280.166 168.841 279.786C169.171 279.381 169.665 279.039 170.323 278.76C171.058 278.481 171.919 278.279 172.907 278.152C173.921 278.025 174.871 277.962 175.757 277.962ZM198.061 296.962C197.782 297.013 197.364 297.076 196.807 297.152C196.275 297.253 195.73 297.304 195.173 297.304C194.616 297.304 194.109 297.266 193.653 297.19C193.222 297.114 192.855 296.962 192.551 296.734C192.247 296.506 192.006 296.202 191.829 295.822C191.677 295.417 191.601 294.897 191.601 294.264V272.224C191.88 272.173 192.285 272.11 192.817 272.034C193.374 271.933 193.932 271.882 194.489 271.882C195.046 271.882 195.54 271.92 195.971 271.996C196.427 272.072 196.807 272.224 197.111 272.452C197.415 272.68 197.643 272.997 197.795 273.402C197.972 273.782 198.061 274.289 198.061 274.922V296.962ZM212.701 292.896C213.132 292.896 213.601 292.858 214.107 292.782C214.639 292.681 215.032 292.554 215.285 292.402V289.362L212.549 289.59C211.84 289.641 211.257 289.793 210.801 290.046C210.345 290.299 210.117 290.679 210.117 291.186C210.117 291.693 210.307 292.111 210.687 292.44C211.093 292.744 211.764 292.896 212.701 292.896ZM212.397 277.962C213.765 277.962 215.007 278.101 216.121 278.38C217.261 278.659 218.224 279.089 219.009 279.672C219.82 280.229 220.441 280.951 220.871 281.838C221.302 282.699 221.517 283.725 221.517 284.916V293.428C221.517 294.087 221.327 294.631 220.947 295.062C220.593 295.467 220.162 295.822 219.655 296.126C218.009 297.114 215.691 297.608 212.701 297.608C211.359 297.608 210.143 297.481 209.053 297.228C207.989 296.975 207.065 296.595 206.279 296.088C205.519 295.581 204.924 294.935 204.493 294.15C204.088 293.365 203.885 292.453 203.885 291.414C203.885 289.666 204.405 288.323 205.443 287.386C206.482 286.449 208.091 285.866 210.269 285.638L215.247 285.106V284.84C215.247 284.105 214.918 283.586 214.259 283.282C213.626 282.953 212.701 282.788 211.485 282.788C210.523 282.788 209.585 282.889 208.673 283.092C207.761 283.295 206.938 283.548 206.203 283.852C205.874 283.624 205.595 283.282 205.367 282.826C205.139 282.345 205.025 281.851 205.025 281.344C205.025 280.685 205.177 280.166 205.481 279.786C205.811 279.381 206.305 279.039 206.963 278.76C207.698 278.481 208.559 278.279 209.547 278.152C210.561 278.025 211.511 277.962 212.397 277.962ZM238.433 273.402C238.433 272.439 238.749 271.629 239.383 270.97C240.041 270.311 240.903 269.982 241.967 269.982C243.031 269.982 243.879 270.311 244.513 270.97C245.171 271.629 245.501 272.439 245.501 273.402C245.501 274.365 245.171 275.175 244.513 275.834C243.879 276.493 243.031 276.822 241.967 276.822C240.903 276.822 240.041 276.493 239.383 275.834C238.749 275.175 238.433 274.365 238.433 273.402ZM237.141 299.584C237.698 299.229 238.103 298.735 238.357 298.102C238.61 297.494 238.737 296.81 238.737 296.05V278.798C239.015 278.747 239.421 278.684 239.953 278.608C240.51 278.507 241.067 278.456 241.625 278.456C242.182 278.456 242.676 278.494 243.107 278.57C243.563 278.646 243.943 278.798 244.247 279.026C244.551 279.254 244.779 279.571 244.931 279.976C245.108 280.356 245.197 280.863 245.197 281.496V296.658C245.197 297.722 245.07 298.685 244.817 299.546C244.563 300.407 244.196 301.142 243.715 301.75C243.259 302.383 242.689 302.865 242.005 303.194C241.346 303.549 240.599 303.726 239.763 303.726C238.648 303.726 237.774 303.384 237.141 302.7C236.507 302.041 236.178 301.205 236.153 300.192L237.141 299.584ZM259.869 292.896C260.3 292.896 260.768 292.858 261.275 292.782C261.807 292.681 262.2 292.554 262.453 292.402V289.362L259.717 289.59C259.008 289.641 258.425 289.793 257.969 290.046C257.513 290.299 257.285 290.679 257.285 291.186C257.285 291.693 257.475 292.111 257.855 292.44C258.26 292.744 258.932 292.896 259.869 292.896ZM259.565 277.962C260.933 277.962 262.174 278.101 263.289 278.38C264.429 278.659 265.392 279.089 266.177 279.672C266.988 280.229 267.608 280.951 268.039 281.838C268.47 282.699 268.685 283.725 268.685 284.916V293.428C268.685 294.087 268.495 294.631 268.115 295.062C267.76 295.467 267.33 295.822 266.823 296.126C265.176 297.114 262.858 297.608 259.869 297.608C258.526 297.608 257.31 297.481 256.221 297.228C255.157 296.975 254.232 296.595 253.447 296.088C252.687 295.581 252.092 294.935 251.661 294.15C251.256 293.365 251.053 292.453 251.053 291.414C251.053 289.666 251.572 288.323 252.611 287.386C253.65 286.449 255.258 285.866 257.437 285.638L262.415 285.106V284.84C262.415 284.105 262.086 283.586 261.427 283.282C260.794 282.953 259.869 282.788 258.653 282.788C257.69 282.788 256.753 282.889 255.841 283.092C254.929 283.295 254.106 283.548 253.371 283.852C253.042 283.624 252.763 283.282 252.535 282.826C252.307 282.345 252.193 281.851 252.193 281.344C252.193 280.685 252.345 280.166 252.649 279.786C252.978 279.381 253.472 279.039 254.131 278.76C254.866 278.481 255.727 278.279 256.715 278.152C257.728 278.025 258.678 277.962 259.565 277.962ZM281.755 296.962C281.502 297.038 281.096 297.114 280.539 297.19C280.007 297.266 279.45 297.304 278.867 297.304C278.31 297.304 277.803 297.266 277.347 297.19C276.916 297.114 276.549 296.962 276.245 296.734C275.941 296.506 275.7 296.202 275.523 295.822C275.371 295.417 275.295 294.897 275.295 294.264V282.864C275.295 282.281 275.396 281.787 275.599 281.382C275.827 280.951 276.144 280.571 276.549 280.242C276.954 279.913 277.448 279.621 278.031 279.368C278.639 279.089 279.285 278.849 279.969 278.646C280.653 278.443 281.362 278.291 282.097 278.19C282.832 278.063 283.566 278 284.301 278C285.517 278 286.48 278.241 287.189 278.722C287.898 279.178 288.253 279.938 288.253 281.002C288.253 281.357 288.202 281.711 288.101 282.066C288 282.395 287.873 282.699 287.721 282.978C287.189 282.978 286.644 283.003 286.087 283.054C285.53 283.105 284.985 283.181 284.453 283.282C283.921 283.383 283.414 283.497 282.933 283.624C282.477 283.725 282.084 283.852 281.755 284.004V296.962ZM293.426 273.402C293.426 272.439 293.743 271.629 294.376 270.97C295.035 270.311 295.896 269.982 296.96 269.982C298.024 269.982 298.873 270.311 299.506 270.97C300.165 271.629 300.494 272.439 300.494 273.402C300.494 274.365 300.165 275.175 299.506 275.834C298.873 276.493 298.024 276.822 296.96 276.822C295.896 276.822 295.035 276.493 294.376 275.834C293.743 275.175 293.426 274.365 293.426 273.402ZM300.19 296.962C299.911 297.013 299.493 297.076 298.936 297.152C298.404 297.253 297.859 297.304 297.302 297.304C296.745 297.304 296.238 297.266 295.782 297.19C295.351 297.114 294.984 296.962 294.68 296.734C294.376 296.506 294.135 296.202 293.958 295.822C293.806 295.417 293.73 294.897 293.73 294.264V278.798C294.009 278.747 294.414 278.684 294.946 278.608C295.503 278.507 296.061 278.456 296.618 278.456C297.175 278.456 297.669 278.494 298.1 278.57C298.556 278.646 298.936 278.798 299.24 279.026C299.544 279.254 299.772 279.571 299.924 279.976C300.101 280.356 300.19 280.863 300.19 281.496V296.962ZM314.867 292.896C315.297 292.896 315.766 292.858 316.273 292.782C316.805 292.681 317.197 292.554 317.451 292.402V289.362L314.715 289.59C314.005 289.641 313.423 289.793 312.967 290.046C312.511 290.299 312.283 290.679 312.283 291.186C312.283 291.693 312.473 292.111 312.853 292.44C313.258 292.744 313.929 292.896 314.867 292.896ZM314.563 277.962C315.931 277.962 317.172 278.101 318.287 278.38C319.427 278.659 320.389 279.089 321.175 279.672C321.985 280.229 322.606 280.951 323.037 281.838C323.467 282.699 323.683 283.725 323.683 284.916V293.428C323.683 294.087 323.493 294.631 323.113 295.062C322.758 295.467 322.327 295.822 321.821 296.126C320.174 297.114 317.856 297.608 314.867 297.608C313.524 297.608 312.308 297.481 311.219 297.228C310.155 296.975 309.23 296.595 308.445 296.088C307.685 295.581 307.089 294.935 306.659 294.15C306.253 293.365 306.051 292.453 306.051 291.414C306.051 289.666 306.57 288.323 307.609 287.386C308.647 286.449 310.256 285.866 312.435 285.638L317.413 285.106V284.84C317.413 284.105 317.083 283.586 316.425 283.282C315.791 282.953 314.867 282.788 313.651 282.788C312.688 282.788 311.751 282.889 310.839 283.092C309.927 283.295 309.103 283.548 308.369 283.852C308.039 283.624 307.761 283.282 307.533 282.826C307.305 282.345 307.191 281.851 307.191 281.344C307.191 280.685 307.343 280.166 307.647 279.786C307.976 279.381 308.47 279.039 309.129 278.76C309.863 278.481 310.725 278.279 311.713 278.152C312.726 278.025 313.676 277.962 314.563 277.962ZM348.532 296.962C348.279 297.038 347.874 297.114 347.316 297.19C346.784 297.266 346.227 297.304 345.644 297.304C345.087 297.304 344.58 297.266 344.124 297.19C343.694 297.114 343.326 296.962 343.022 296.734C342.718 296.506 342.478 296.202 342.3 295.822C342.148 295.417 342.072 294.897 342.072 294.264V285.828C342.072 284.789 341.806 284.067 341.274 283.662C340.768 283.231 340.134 283.016 339.374 283.016C338.868 283.016 338.386 283.079 337.93 283.206C337.474 283.333 337.107 283.485 336.828 283.662V296.962C336.575 297.038 336.17 297.114 335.612 297.19C335.08 297.266 334.523 297.304 333.94 297.304C333.383 297.304 332.876 297.266 332.42 297.19C331.99 297.114 331.622 296.962 331.318 296.734C331.014 296.506 330.774 296.202 330.596 295.822C330.444 295.417 330.368 294.897 330.368 294.264V272.224C330.647 272.173 331.052 272.11 331.584 272.034C332.142 271.933 332.699 271.882 333.256 271.882C333.814 271.882 334.308 271.92 334.738 271.996C335.194 272.072 335.574 272.224 335.878 272.452C336.182 272.68 336.41 272.997 336.562 273.402C336.74 273.782 336.828 274.289 336.828 274.922V278.646C337.158 278.519 337.652 278.38 338.31 278.228C338.994 278.051 339.742 277.962 340.552 277.962C343.06 277.962 345.011 278.595 346.404 279.862C347.823 281.103 348.532 282.965 348.532 285.448V296.962Z" fill="#F41E1E"/>
</g>
<defs>
<clipPath id="clip0_29_1689">
<rect width="518" height="1024" fill="white"/>
</clipPath>
</defs>
</svg>
