<svg width="166" height="167" viewBox="0 0 166 167" fill="none" xmlns="http://www.w3.org/2000/svg">
<path d="M104.457 140.825H61.4031C56.1991 140.825 51.9648 145.06 51.9648 150.264V160.478C51.9648 163.71 54.6153 166.328 57.8153 166.328H107.98C111.212 166.328 113.831 163.71 113.831 160.478V150.264C113.863 145.027 109.629 140.825 104.457 140.825ZM78.1786 93.214C78.1786 95.8322 80.3119 97.9655 82.93 97.9655C85.5482 97.9655 87.6815 95.8322 87.6815 93.214C87.6815 90.6282 85.5805 88.4303 82.8977 88.4303C80.2795 88.4626 78.1786 90.5959 78.1786 93.214Z" fill="#194F76"/>
<path d="M85.1933 42.1118C85.0317 41.8855 84.6761 41.9825 84.6761 42.2734V85.198C88.3609 86.0061 91.173 89.2706 91.173 93.2463C91.173 97.7715 87.4882 101.424 82.963 101.424C78.7611 101.424 75.4641 98.3533 74.85 94.5716C74.1389 90.0464 77.1126 86.0707 81.2176 85.198V42.2734C81.2176 41.9825 80.8297 41.8855 80.7004 42.1118L44.0788 98.7412C41.4283 102.846 42.4303 108.406 46.3414 111.379C55.9412 118.62 61.8239 127.153 64.2482 137.367H101.613C104.037 127.153 109.92 118.62 119.52 111.379C123.463 108.406 124.465 102.846 121.783 98.7412L85.1933 42.1118Z" fill="#194F76"/>
<path d="M154.105 72.9153C149.515 46.0875 130.121 24.2696 104.651 16.2213C117.516 16.2536 130.154 16.2859 141.337 16.2859C142.242 22.1687 147.317 26.6615 153.426 26.6615C160.182 26.6615 165.676 21.1667 165.676 14.4112C165.676 7.65576 160.182 2.1609 153.426 2.1609C147.22 2.1609 142.081 6.81537 141.305 12.8274C130.703 12.7951 114.316 12.7628 96.7321 12.7304V7.8497C96.7321 3.97097 93.5968 0.803345 89.718 0.803345H76.1425C72.2638 0.803345 69.0961 3.97097 69.0961 7.8497V12.7304C46.5025 12.6981 32.83 12.6981 24.4908 12.7304C23.6827 6.78305 18.5757 2.19322 12.4344 2.19322C5.67895 2.19322 0.184082 7.68808 0.184082 14.4112C0.184082 21.1667 5.67895 26.6615 12.4344 26.6615C18.5757 26.6615 23.6827 22.104 24.5231 16.189C33.3795 16.1566 46.4702 16.1566 61.371 16.1566C35.836 24.1727 16.3454 46.0228 11.7556 72.9153C5.29107 73.2709 0.184082 78.6041 0.184082 85.1333C0.184082 91.8888 5.67895 97.3836 12.4344 97.3836C19.1898 97.3836 24.6847 91.8888 24.6847 85.1333C24.6847 79.3476 20.6444 74.4991 15.2141 73.2386C20.0949 45.4733 41.6218 23.3646 69.1285 17.7405V21.3929C69.1285 25.2716 72.2961 28.4393 76.1748 28.4393H89.718C93.5968 28.4393 96.7644 25.2716 96.7644 21.3929V17.7081C124.271 23.3323 145.83 45.441 150.679 73.2062C145.281 74.4668 141.208 79.3152 141.208 85.101C141.208 91.8564 146.703 97.3513 153.458 97.3513C160.214 97.3513 165.709 91.8564 165.709 85.101C165.676 78.6041 160.569 73.2709 154.105 72.9153Z" fill="#194F76"/>
</svg>
