<svg width="184" height="66" viewBox="0 0 184 66" fill="none" xmlns="http://www.w3.org/2000/svg">
<path d="M0 0.692139H5.17959C5.17959 0.692139 11.1136 0.827338 13.0916 5.94061C13.5056 7.10318 13.7269 8.33564 13.7455 9.58139C13.7203 11.4249 13.7455 11.9194 13.7455 11.9194C13.7455 11.9194 4.20519 14.4353 0 23.6273V0.692139Z" fill="#0437AC"/>
<path d="M65.5999 10.4341C65.5999 10.4341 55.8933 8.35031 50.233 11.7192V0.721191H36.2302V7.69417C36.2302 7.69417 36.4651 13.5811 27.7139 14.748C18.9626 15.9148 0.0898438 21.8018 0.0898438 41.7684V65.1003C0.0898438 65.1003 8.65911 66.6896 12.7876 58.2332C12.7876 58.2332 20.5386 66.2253 36.2322 61.2773C36.2322 61.2773 45.9022 57.4286 48.7568 46.8288C51.6114 36.229 46.3632 24.336 59.2816 23.1692C59.2816 23.1692 68.7879 22.0207 68.6705 36.395C68.6705 50.7093 66.5655 65.1326 77.3552 65.2832L82.6516 65.2678V34.9461C82.6516 34.9461 83.4766 15.7392 65.6033 10.4341H65.5999ZM36.3592 38.2724L36.3028 38.2231C36.5043 40.2121 36.155 42.2211 35.2994 43.9949C34.4437 45.7687 33.1203 47.2273 31.497 48.1856C29.8738 49.144 28.024 49.5587 26.1825 49.3773C24.3411 49.1958 22.5909 48.4264 21.1544 47.1665C19.7178 45.9067 18.6596 44.2134 18.1141 42.3016C17.5685 40.3897 17.5603 38.3455 18.0905 36.4286C18.6206 34.5117 19.6652 32.8085 21.0916 31.5352C22.518 30.262 24.2619 29.4761 26.1019 29.2773L26.0448 29.2273C33.4937 28.3015 36.846 26.9496 36.846 26.9496C36.2744 30.6897 36.111 34.4895 36.3592 38.2709" fill="#598DF8"/>
<path d="M94.2025 13.099C93.9238 13.099 93.7111 13.022 93.5645 12.868C93.4178 12.714 93.3445 12.4977 93.3445 12.219V6.114C93.3445 5.828 93.4178 5.61167 93.5645 5.465C93.7185 5.31833 93.9348 5.245 94.2135 5.245H96.8865C97.7518 5.245 98.4191 5.465 98.8885 5.905C99.3578 6.33767 99.5925 6.94267 99.5925 7.72C99.5925 8.49733 99.3578 9.106 98.8885 9.546C98.4191 9.986 97.7518 10.206 96.8865 10.206H95.0495V12.219C95.0495 12.4977 94.9761 12.714 94.8295 12.868C94.6901 13.022 94.4811 13.099 94.2025 13.099ZM95.0495 8.886H96.6005C97.0405 8.886 97.3741 8.787 97.6015 8.589C97.8361 8.391 97.9535 8.10133 97.9535 7.72C97.9535 7.33867 97.8361 7.05267 97.6015 6.862C97.3741 6.67133 97.0405 6.576 96.6005 6.576H95.0495V8.886ZM104.984 13.121C104.221 13.121 103.55 12.956 102.971 12.626C102.399 12.2887 101.952 11.8193 101.629 11.218C101.314 10.6167 101.156 9.91633 101.156 9.117C101.156 8.50833 101.244 7.962 101.42 7.478C101.603 6.98667 101.864 6.56867 102.201 6.224C102.538 5.872 102.942 5.60067 103.411 5.41C103.888 5.21933 104.412 5.124 104.984 5.124C105.761 5.124 106.436 5.289 107.008 5.619C107.58 5.949 108.024 6.41467 108.339 7.016C108.662 7.61 108.823 8.30667 108.823 9.106C108.823 9.71467 108.731 10.2647 108.548 10.756C108.365 11.2473 108.104 11.669 107.767 12.021C107.43 12.373 107.026 12.6443 106.557 12.835C106.088 13.0257 105.563 13.121 104.984 13.121ZM104.984 11.669C105.417 11.669 105.783 11.57 106.084 11.372C106.392 11.1667 106.627 10.8733 106.788 10.492C106.957 10.1033 107.041 9.645 107.041 9.117C107.041 8.31033 106.861 7.687 106.502 7.247C106.143 6.79967 105.637 6.576 104.984 6.576C104.559 6.576 104.192 6.675 103.884 6.873C103.576 7.071 103.341 7.36067 103.18 7.742C103.019 8.12333 102.938 8.58167 102.938 9.117C102.938 9.91633 103.118 10.5433 103.477 10.998C103.836 11.4453 104.339 11.669 104.984 11.669ZM111.781 13C111.502 13 111.286 12.923 111.132 12.769C110.985 12.615 110.912 12.4023 110.912 12.131V6.092C110.912 5.806 110.985 5.58967 111.132 5.443C111.278 5.29633 111.491 5.223 111.77 5.223C112.041 5.223 112.25 5.29633 112.397 5.443C112.543 5.58967 112.617 5.806 112.617 6.092V11.559H115.565C115.799 11.559 115.979 11.6213 116.104 11.746C116.236 11.8707 116.302 12.0467 116.302 12.274C116.302 12.5087 116.236 12.6883 116.104 12.813C115.979 12.9377 115.799 13 115.565 13H111.781ZM118.845 13.099C118.567 13.099 118.354 13.022 118.207 12.868C118.061 12.714 117.987 12.4977 117.987 12.219V6.026C117.987 5.74733 118.061 5.531 118.207 5.377C118.354 5.223 118.567 5.146 118.845 5.146C119.117 5.146 119.326 5.223 119.472 5.377C119.619 5.531 119.692 5.74733 119.692 6.026V12.219C119.692 12.4977 119.619 12.714 119.472 12.868C119.333 13.022 119.124 13.099 118.845 13.099ZM124.729 13.099C124.45 13.099 124.238 13.022 124.091 12.868C123.944 12.714 123.871 12.4977 123.871 12.219V6.653H121.924C121.697 6.653 121.521 6.59067 121.396 6.466C121.271 6.34133 121.209 6.169 121.209 5.949C121.209 5.72167 121.271 5.54933 121.396 5.432C121.521 5.30733 121.697 5.245 121.924 5.245H127.523C127.75 5.245 127.926 5.30733 128.051 5.432C128.176 5.54933 128.238 5.72167 128.238 5.949C128.238 6.169 128.176 6.34133 128.051 6.466C127.926 6.59067 127.75 6.653 127.523 6.653H125.576V12.219C125.576 12.4977 125.503 12.714 125.356 12.868C125.217 13.022 125.008 13.099 124.729 13.099ZM130.634 13C130.348 13 130.128 12.923 129.974 12.769C129.82 12.615 129.743 12.395 129.743 12.109V6.136C129.743 5.85 129.82 5.63 129.974 5.476C130.128 5.322 130.348 5.245 130.634 5.245H134.473C134.693 5.245 134.858 5.30367 134.968 5.421C135.086 5.531 135.144 5.69233 135.144 5.905C135.144 6.125 135.086 6.29367 134.968 6.411C134.858 6.521 134.693 6.576 134.473 6.576H131.371V8.391H134.22C134.448 8.391 134.616 8.44967 134.726 8.567C134.844 8.677 134.902 8.842 134.902 9.062C134.902 9.282 134.844 9.45067 134.726 9.568C134.616 9.678 134.448 9.733 134.22 9.733H131.371V11.669H134.473C134.693 11.669 134.858 11.7277 134.968 11.845C135.086 11.955 135.144 12.1163 135.144 12.329C135.144 12.549 135.086 12.7177 134.968 12.835C134.858 12.945 134.693 13 134.473 13H130.634ZM138.031 13.099C137.753 13.099 137.54 13.022 137.393 12.868C137.247 12.714 137.173 12.4977 137.173 12.219V6.015C137.173 5.73633 137.247 5.52367 137.393 5.377C137.54 5.223 137.753 5.146 138.031 5.146C138.303 5.146 138.512 5.223 138.658 5.377C138.805 5.52367 138.878 5.73633 138.878 6.015V8.622H138.9L141.826 5.564C141.951 5.432 142.079 5.333 142.211 5.267C142.351 5.19367 142.508 5.157 142.684 5.157C142.941 5.157 143.124 5.223 143.234 5.355C143.352 5.487 143.403 5.641 143.388 5.817C143.374 5.993 143.293 6.158 143.146 6.312L140.209 9.315L140.22 8.578L143.3 11.867C143.469 12.0503 143.553 12.2373 143.553 12.428C143.561 12.6187 143.498 12.78 143.366 12.912C143.242 13.0367 143.055 13.099 142.805 13.099C142.593 13.099 142.42 13.055 142.288 12.967C142.164 12.879 142.024 12.7507 141.87 12.582L138.9 9.458H138.878V12.219C138.878 12.4977 138.805 12.714 138.658 12.868C138.519 13.022 138.31 13.099 138.031 13.099ZM146.309 13.099C146.052 13.099 145.854 13.0293 145.715 12.89C145.583 12.7433 145.517 12.538 145.517 12.274V6.004C145.517 5.72533 145.583 5.51267 145.715 5.366C145.854 5.21933 146.037 5.146 146.265 5.146C146.463 5.146 146.613 5.18633 146.716 5.267C146.826 5.34033 146.95 5.465 147.09 5.641L150.951 10.558H150.654V5.96C150.654 5.70333 150.72 5.50533 150.852 5.366C150.991 5.21933 151.189 5.146 151.446 5.146C151.702 5.146 151.897 5.21933 152.029 5.366C152.168 5.50533 152.238 5.70333 152.238 5.96V12.307C152.238 12.549 152.175 12.7433 152.051 12.89C151.926 13.0293 151.757 13.099 151.545 13.099C151.339 13.099 151.174 13.0587 151.05 12.978C150.932 12.8973 150.804 12.769 150.665 12.593L146.815 7.676H147.101V12.274C147.101 12.538 147.035 12.7433 146.903 12.89C146.771 13.0293 146.573 13.099 146.309 13.099ZM155.427 13.099C155.148 13.099 154.936 13.022 154.789 12.868C154.642 12.714 154.569 12.4977 154.569 12.219V6.026C154.569 5.74733 154.642 5.531 154.789 5.377C154.936 5.223 155.148 5.146 155.427 5.146C155.698 5.146 155.907 5.223 156.054 5.377C156.201 5.531 156.274 5.74733 156.274 6.026V12.219C156.274 12.4977 156.201 12.714 156.054 12.868C155.915 13.022 155.706 13.099 155.427 13.099ZM159.463 13.099C159.184 13.099 158.971 13.022 158.825 12.868C158.678 12.714 158.605 12.4977 158.605 12.219V6.015C158.605 5.73633 158.678 5.52367 158.825 5.377C158.971 5.223 159.184 5.146 159.463 5.146C159.734 5.146 159.943 5.223 160.09 5.377C160.236 5.52367 160.31 5.73633 160.31 6.015V8.622H160.332L163.258 5.564C163.382 5.432 163.511 5.333 163.643 5.267C163.782 5.19367 163.94 5.157 164.116 5.157C164.372 5.157 164.556 5.223 164.666 5.355C164.783 5.487 164.834 5.641 164.82 5.817C164.805 5.993 164.724 6.158 164.578 6.312L161.641 9.315L161.652 8.578L164.732 11.867C164.9 12.0503 164.985 12.2373 164.985 12.428C164.992 12.6187 164.93 12.78 164.798 12.912C164.673 13.0367 164.486 13.099 164.237 13.099C164.024 13.099 163.852 13.055 163.72 12.967C163.595 12.879 163.456 12.7507 163.302 12.582L160.332 9.458H160.31V12.219C160.31 12.4977 160.236 12.714 160.09 12.868C159.95 13.022 159.741 13.099 159.463 13.099ZM94.2025 28.099C93.9238 28.099 93.7111 28.022 93.5645 27.868C93.4178 27.714 93.3445 27.4977 93.3445 27.219V21.026C93.3445 20.7473 93.4178 20.531 93.5645 20.377C93.7111 20.223 93.9238 20.146 94.2025 20.146C94.4738 20.146 94.6828 20.223 94.8295 20.377C94.9761 20.531 95.0495 20.7473 95.0495 21.026V27.219C95.0495 27.4977 94.9761 27.714 94.8295 27.868C94.6901 28.022 94.4811 28.099 94.2025 28.099ZM100.152 28.121C99.8441 28.121 99.5288 28.0953 99.2061 28.044C98.8908 28 98.5864 27.934 98.2931 27.846C98.0071 27.758 97.7504 27.648 97.5231 27.516C97.3618 27.428 97.2481 27.3143 97.1821 27.175C97.1161 27.0283 97.0904 26.8817 97.1051 26.735C97.1271 26.5883 97.1821 26.46 97.2701 26.35C97.3654 26.2327 97.4828 26.1593 97.6221 26.13C97.7688 26.0933 97.9301 26.119 98.1061 26.207C98.4068 26.3757 98.7331 26.5003 99.0851 26.581C99.4444 26.6617 99.8001 26.702 100.152 26.702C100.687 26.702 101.069 26.6213 101.296 26.46C101.523 26.2913 101.637 26.0823 101.637 25.833C101.637 25.6203 101.556 25.4517 101.395 25.327C101.234 25.2023 100.951 25.096 100.548 25.008L99.3051 24.744C98.6011 24.5973 98.0768 24.348 97.7321 23.996C97.3948 23.6367 97.2261 23.1673 97.2261 22.588C97.2261 22.2213 97.3031 21.8877 97.4571 21.587C97.6111 21.2863 97.8274 21.026 98.1061 20.806C98.3848 20.586 98.7148 20.4173 99.0961 20.3C99.4848 20.1827 99.9101 20.124 100.372 20.124C100.783 20.124 101.186 20.1753 101.582 20.278C101.978 20.3733 102.326 20.5163 102.627 20.707C102.774 20.795 102.873 20.9087 102.924 21.048C102.983 21.18 103.001 21.3157 102.979 21.455C102.964 21.587 102.909 21.7043 102.814 21.807C102.726 21.9097 102.612 21.9757 102.473 22.005C102.334 22.0343 102.165 22.0013 101.967 21.906C101.725 21.7813 101.468 21.6897 101.197 21.631C100.926 21.5723 100.647 21.543 100.361 21.543C100.053 21.543 99.7891 21.5833 99.5691 21.664C99.3564 21.7447 99.1914 21.8583 99.0741 22.005C98.9641 22.1517 98.9091 22.3203 98.9091 22.511C98.9091 22.7237 98.9861 22.896 99.1401 23.028C99.2941 23.16 99.5618 23.2663 99.9431 23.347L101.186 23.611C101.905 23.765 102.44 24.0143 102.792 24.359C103.144 24.6963 103.32 25.1437 103.32 25.701C103.32 26.0677 103.247 26.4013 103.1 26.702C102.953 26.9953 102.741 27.2483 102.462 27.461C102.183 27.6737 101.85 27.8387 101.461 27.956C101.072 28.066 100.636 28.121 100.152 28.121ZM106.066 28C105.787 28 105.571 27.923 105.417 27.769C105.27 27.615 105.197 27.4023 105.197 27.131V21.092C105.197 20.806 105.27 20.5897 105.417 20.443C105.564 20.2963 105.776 20.223 106.055 20.223C106.326 20.223 106.535 20.2963 106.682 20.443C106.829 20.5897 106.902 20.806 106.902 21.092V26.559H109.85C110.085 26.559 110.264 26.6213 110.389 26.746C110.521 26.8707 110.587 27.0467 110.587 27.274C110.587 27.5087 110.521 27.6883 110.389 27.813C110.264 27.9377 110.085 28 109.85 28H106.066ZM112.353 28.099C112.148 28.099 111.979 28.0513 111.847 27.956C111.722 27.8607 111.642 27.7323 111.605 27.571C111.576 27.4097 111.609 27.23 111.704 27.032L114.52 20.861C114.637 20.6117 114.777 20.432 114.938 20.322C115.099 20.2047 115.286 20.146 115.499 20.146C115.712 20.146 115.899 20.2047 116.06 20.322C116.221 20.432 116.357 20.6117 116.467 20.861L119.305 27.032C119.4 27.23 119.433 27.4133 119.404 27.582C119.382 27.7433 119.309 27.8717 119.184 27.967C119.059 28.055 118.898 28.099 118.7 28.099C118.451 28.099 118.256 28.0403 118.117 27.923C117.985 27.8057 117.868 27.6223 117.765 27.373L117.105 25.844L117.787 26.317H113.2L113.882 25.844L113.233 27.373C113.123 27.6297 113.006 27.8167 112.881 27.934C112.764 28.044 112.588 28.099 112.353 28.099ZM115.477 22.06L114.069 25.415L113.772 24.986H117.215L116.918 25.415L115.499 22.06H115.477ZM121.977 28.099C121.728 28.099 121.537 28.0293 121.405 27.89C121.273 27.7507 121.207 27.5563 121.207 27.307V20.938C121.207 20.6887 121.277 20.4943 121.416 20.355C121.563 20.2157 121.761 20.146 122.01 20.146C122.23 20.146 122.403 20.19 122.527 20.278C122.659 20.3587 122.78 20.5017 122.89 20.707L125.431 25.349H125.057L127.598 20.707C127.708 20.5017 127.826 20.3587 127.95 20.278C128.082 20.19 128.255 20.146 128.467 20.146C128.717 20.146 128.907 20.2157 129.039 20.355C129.179 20.4943 129.248 20.6887 129.248 20.938V27.307C129.248 27.5563 129.182 27.7507 129.05 27.89C128.918 28.0293 128.728 28.099 128.478 28.099C128.229 28.099 128.035 28.0293 127.895 27.89C127.763 27.7507 127.697 27.5563 127.697 27.307V22.852H127.939L125.893 26.515C125.805 26.6543 125.71 26.7607 125.607 26.834C125.512 26.9 125.384 26.933 125.222 26.933C125.061 26.933 124.929 26.8963 124.826 26.823C124.724 26.7497 124.632 26.647 124.551 26.515L122.483 22.841H122.747V27.307C122.747 27.5563 122.681 27.7507 122.549 27.89C122.425 28.0293 122.234 28.099 121.977 28.099ZM132.449 28.099C132.17 28.099 131.958 28.022 131.811 27.868C131.664 27.714 131.591 27.4977 131.591 27.219V21.026C131.591 20.7473 131.664 20.531 131.811 20.377C131.958 20.223 132.17 20.146 132.449 20.146C132.72 20.146 132.929 20.223 133.076 20.377C133.223 20.531 133.296 20.7473 133.296 21.026V27.219C133.296 27.4977 133.223 27.714 133.076 27.868C132.937 28.022 132.728 28.099 132.449 28.099ZM139.389 28.121C138.553 28.121 137.838 27.956 137.244 27.626C136.65 27.296 136.191 26.834 135.869 26.24C135.553 25.6387 135.396 24.931 135.396 24.117C135.396 23.5083 135.484 22.962 135.66 22.478C135.843 21.9867 136.107 21.5687 136.452 21.224C136.796 20.872 137.214 20.6007 137.706 20.41C138.204 20.2193 138.765 20.124 139.389 20.124C139.755 20.124 140.126 20.1717 140.5 20.267C140.881 20.355 141.211 20.4833 141.49 20.652C141.673 20.7547 141.798 20.883 141.864 21.037C141.93 21.191 141.948 21.345 141.919 21.499C141.897 21.653 141.834 21.785 141.732 21.895C141.636 22.005 141.515 22.0747 141.369 22.104C141.222 22.1333 141.057 22.1003 140.874 22.005C140.654 21.873 140.423 21.7777 140.181 21.719C139.939 21.6603 139.693 21.631 139.444 21.631C138.952 21.631 138.538 21.73 138.201 21.928C137.871 22.1187 137.621 22.3973 137.453 22.764C137.284 23.1307 137.2 23.5817 137.2 24.117C137.2 24.645 137.284 25.096 137.453 25.47C137.621 25.844 137.871 26.13 138.201 26.328C138.538 26.5187 138.952 26.614 139.444 26.614C139.678 26.614 139.917 26.5847 140.159 26.526C140.408 26.4673 140.646 26.3757 140.874 26.251C141.064 26.1557 141.233 26.1227 141.38 26.152C141.534 26.174 141.658 26.24 141.754 26.35C141.856 26.4527 141.919 26.5773 141.941 26.724C141.97 26.8707 141.955 27.0173 141.897 27.164C141.838 27.3107 141.728 27.4353 141.567 27.538C141.295 27.7213 140.962 27.8643 140.566 27.967C140.17 28.0697 139.777 28.121 139.389 28.121ZM94.2355 43C93.9495 43 93.7295 42.923 93.5755 42.769C93.4215 42.615 93.3445 42.395 93.3445 42.109V36.136C93.3445 35.85 93.4215 35.63 93.5755 35.476C93.7295 35.322 93.9495 35.245 94.2355 35.245H96.3805C97.7078 35.245 98.7308 35.5823 99.4495 36.257C100.175 36.9243 100.538 37.8777 100.538 39.117C100.538 39.7403 100.443 40.294 100.252 40.778C100.069 41.2547 99.8015 41.658 99.4495 41.988C99.0975 42.318 98.6648 42.571 98.1515 42.747C97.6381 42.9157 97.0478 43 96.3805 43H94.2355ZM95.0495 41.603H96.2815C96.6995 41.603 97.0625 41.5517 97.3705 41.449C97.6785 41.3463 97.9351 41.1923 98.1405 40.987C98.3458 40.7817 98.4998 40.525 98.6025 40.217C98.7051 39.9017 98.7565 39.535 98.7565 39.117C98.7565 38.281 98.5475 37.6613 98.1295 37.258C97.7188 36.8473 97.1028 36.642 96.2815 36.642H95.0495V41.603ZM103.524 43C103.238 43 103.018 42.923 102.864 42.769C102.71 42.615 102.633 42.395 102.633 42.109V36.136C102.633 35.85 102.71 35.63 102.864 35.476C103.018 35.322 103.238 35.245 103.524 35.245H107.363C107.583 35.245 107.748 35.3037 107.858 35.421C107.975 35.531 108.034 35.6923 108.034 35.905C108.034 36.125 107.975 36.2937 107.858 36.411C107.748 36.521 107.583 36.576 107.363 36.576H104.261V38.391H107.11C107.337 38.391 107.506 38.4497 107.616 38.567C107.733 38.677 107.792 38.842 107.792 39.062C107.792 39.282 107.733 39.4507 107.616 39.568C107.506 39.678 107.337 39.733 107.11 39.733H104.261V41.669H107.363C107.583 41.669 107.748 41.7277 107.858 41.845C107.975 41.955 108.034 42.1163 108.034 42.329C108.034 42.549 107.975 42.7177 107.858 42.835C107.748 42.945 107.583 43 107.363 43H103.524ZM113.286 43.099C113.052 43.099 112.857 43.0477 112.703 42.945C112.557 42.835 112.436 42.67 112.34 42.45L109.568 36.29C109.466 36.07 109.436 35.8757 109.48 35.707C109.524 35.531 109.616 35.3953 109.755 35.3C109.895 35.1973 110.063 35.146 110.261 35.146C110.511 35.146 110.701 35.2047 110.833 35.322C110.965 35.432 111.075 35.597 111.163 35.817L113.594 41.438H113.044L115.475 35.806C115.571 35.586 115.684 35.421 115.816 35.311C115.948 35.201 116.132 35.146 116.366 35.146C116.564 35.146 116.726 35.1973 116.85 35.3C116.982 35.3953 117.063 35.531 117.092 35.707C117.129 35.8757 117.1 36.07 117.004 36.29L114.232 42.45C114.13 42.67 114.005 42.835 113.858 42.945C113.719 43.0477 113.528 43.099 113.286 43.099ZM119.716 43C119.43 43 119.21 42.923 119.056 42.769C118.902 42.615 118.825 42.395 118.825 42.109V36.136C118.825 35.85 118.902 35.63 119.056 35.476C119.21 35.322 119.43 35.245 119.716 35.245H123.555C123.775 35.245 123.94 35.3037 124.05 35.421C124.168 35.531 124.226 35.6923 124.226 35.905C124.226 36.125 124.168 36.2937 124.05 36.411C123.94 36.521 123.775 36.576 123.555 36.576H120.453V38.391H123.302C123.53 38.391 123.698 38.4497 123.808 38.567C123.926 38.677 123.984 38.842 123.984 39.062C123.984 39.282 123.926 39.4507 123.808 39.568C123.698 39.678 123.53 39.733 123.302 39.733H120.453V41.669H123.555C123.775 41.669 123.94 41.7277 124.05 41.845C124.168 41.955 124.226 42.1163 124.226 42.329C124.226 42.549 124.168 42.7177 124.05 42.835C123.94 42.945 123.775 43 123.555 43H119.716ZM127.125 43C126.846 43 126.63 42.923 126.476 42.769C126.329 42.615 126.256 42.4023 126.256 42.131V36.092C126.256 35.806 126.329 35.5897 126.476 35.443C126.622 35.2963 126.835 35.223 127.114 35.223C127.385 35.223 127.594 35.2963 127.741 35.443C127.887 35.5897 127.961 35.806 127.961 36.092V41.559H130.909C131.143 41.559 131.323 41.6213 131.448 41.746C131.58 41.8707 131.646 42.0467 131.646 42.274C131.646 42.5087 131.58 42.6883 131.448 42.813C131.323 42.9377 131.143 43 130.909 43H127.125ZM136.499 43.121C135.736 43.121 135.065 42.956 134.486 42.626C133.914 42.2887 133.466 41.8193 133.144 41.218C132.828 40.6167 132.671 39.9163 132.671 39.117C132.671 38.5083 132.759 37.962 132.935 37.478C133.118 36.9867 133.378 36.5687 133.716 36.224C134.053 35.872 134.456 35.6007 134.926 35.41C135.402 35.2193 135.927 35.124 136.499 35.124C137.276 35.124 137.951 35.289 138.523 35.619C139.095 35.949 139.538 36.4147 139.854 37.016C140.176 37.61 140.338 38.3067 140.338 39.106C140.338 39.7147 140.246 40.2647 140.063 40.756C139.879 41.2473 139.619 41.669 139.282 42.021C138.944 42.373 138.541 42.6443 138.072 42.835C137.602 43.0257 137.078 43.121 136.499 43.121ZM136.499 41.669C136.931 41.669 137.298 41.57 137.599 41.372C137.907 41.1667 138.141 40.8733 138.303 40.492C138.471 40.1033 138.556 39.645 138.556 39.117C138.556 38.3103 138.376 37.687 138.017 37.247C137.657 36.7997 137.151 36.576 136.499 36.576C136.073 36.576 135.707 36.675 135.399 36.873C135.091 37.071 134.856 37.3607 134.695 37.742C134.533 38.1233 134.453 38.5817 134.453 39.117C134.453 39.9163 134.632 40.5433 134.992 40.998C135.351 41.4453 135.853 41.669 136.499 41.669ZM143.284 43.099C143.006 43.099 142.793 43.022 142.646 42.868C142.5 42.714 142.426 42.4977 142.426 42.219V36.114C142.426 35.828 142.5 35.6117 142.646 35.465C142.8 35.3183 143.017 35.245 143.295 35.245H145.968C146.834 35.245 147.501 35.465 147.97 35.905C148.44 36.3377 148.674 36.9427 148.674 37.72C148.674 38.4973 148.44 39.106 147.97 39.546C147.501 39.986 146.834 40.206 145.968 40.206H144.131V42.219C144.131 42.4977 144.058 42.714 143.911 42.868C143.772 43.022 143.563 43.099 143.284 43.099ZM144.131 38.886H145.682C146.122 38.886 146.456 38.787 146.683 38.589C146.918 38.391 147.035 38.1013 147.035 37.72C147.035 37.3387 146.918 37.0527 146.683 36.862C146.456 36.6713 146.122 36.576 145.682 36.576H144.131V38.886ZM151.293 43.099C151.044 43.099 150.853 43.0293 150.721 42.89C150.589 42.7507 150.523 42.5563 150.523 42.307V35.938C150.523 35.6887 150.593 35.4943 150.732 35.355C150.879 35.2157 151.077 35.146 151.326 35.146C151.546 35.146 151.718 35.19 151.843 35.278C151.975 35.3587 152.096 35.5017 152.206 35.707L154.747 40.349H154.373L156.914 35.707C157.024 35.5017 157.141 35.3587 157.266 35.278C157.398 35.19 157.57 35.146 157.783 35.146C158.032 35.146 158.223 35.2157 158.355 35.355C158.494 35.4943 158.564 35.6887 158.564 35.938V42.307C158.564 42.5563 158.498 42.7507 158.366 42.89C158.234 43.0293 158.043 43.099 157.794 43.099C157.545 43.099 157.35 43.0293 157.211 42.89C157.079 42.7507 157.013 42.5563 157.013 42.307V37.852H157.255L155.209 41.515C155.121 41.6543 155.026 41.7607 154.923 41.834C154.828 41.9 154.699 41.933 154.538 41.933C154.377 41.933 154.245 41.8963 154.142 41.823C154.039 41.7497 153.948 41.647 153.867 41.515L151.799 37.841H152.063V42.307C152.063 42.5563 151.997 42.7507 151.865 42.89C151.74 43.0293 151.55 43.099 151.293 43.099ZM161.798 43C161.512 43 161.292 42.923 161.138 42.769C160.984 42.615 160.907 42.395 160.907 42.109V36.136C160.907 35.85 160.984 35.63 161.138 35.476C161.292 35.322 161.512 35.245 161.798 35.245H165.637C165.857 35.245 166.022 35.3037 166.132 35.421C166.249 35.531 166.308 35.6923 166.308 35.905C166.308 36.125 166.249 36.2937 166.132 36.411C166.022 36.521 165.857 36.576 165.637 36.576H162.535V38.391H165.384C165.611 38.391 165.78 38.4497 165.89 38.567C166.007 38.677 166.066 38.842 166.066 39.062C166.066 39.282 166.007 39.4507 165.89 39.568C165.78 39.678 165.611 39.733 165.384 39.733H162.535V41.669H165.637C165.857 41.669 166.022 41.7277 166.132 41.845C166.249 41.955 166.308 42.1163 166.308 42.329C166.308 42.549 166.249 42.7177 166.132 42.835C166.022 42.945 165.857 43 165.637 43H161.798ZM169.129 43.099C168.872 43.099 168.674 43.0293 168.535 42.89C168.403 42.7433 168.337 42.538 168.337 42.274V36.004C168.337 35.7253 168.403 35.5127 168.535 35.366C168.674 35.2193 168.858 35.146 169.085 35.146C169.283 35.146 169.433 35.1863 169.536 35.267C169.646 35.3403 169.771 35.465 169.91 35.641L173.771 40.558H173.474V35.96C173.474 35.7033 173.54 35.5053 173.672 35.366C173.811 35.2193 174.009 35.146 174.266 35.146C174.523 35.146 174.717 35.2193 174.849 35.366C174.988 35.5053 175.058 35.7033 175.058 35.96V42.307C175.058 42.549 174.996 42.7433 174.871 42.89C174.746 43.0293 174.578 43.099 174.365 43.099C174.16 43.099 173.995 43.0587 173.87 42.978C173.753 42.8973 173.624 42.769 173.485 42.593L169.635 37.676H169.921V42.274C169.921 42.538 169.855 42.7433 169.723 42.89C169.591 43.0293 169.393 43.099 169.129 43.099ZM180.095 43.099C179.817 43.099 179.604 43.022 179.457 42.868C179.311 42.714 179.237 42.4977 179.237 42.219V36.653H177.29C177.063 36.653 176.887 36.5907 176.762 36.466C176.638 36.3413 176.575 36.169 176.575 35.949C176.575 35.7217 176.638 35.5493 176.762 35.432C176.887 35.3073 177.063 35.245 177.29 35.245H182.889C183.117 35.245 183.293 35.3073 183.417 35.432C183.542 35.5493 183.604 35.7217 183.604 35.949C183.604 36.169 183.542 36.3413 183.417 36.466C183.293 36.5907 183.117 36.653 182.889 36.653H180.942V42.219C180.942 42.4977 180.869 42.714 180.722 42.868C180.583 43.022 180.374 43.099 180.095 43.099ZM94.1365 58.099C93.8798 58.099 93.6818 58.0293 93.5425 57.89C93.4105 57.7433 93.3445 57.538 93.3445 57.274V51.004C93.3445 50.7253 93.4105 50.5127 93.5425 50.366C93.6818 50.2193 93.8651 50.146 94.0925 50.146C94.2905 50.146 94.4408 50.1863 94.5435 50.267C94.6535 50.3403 94.7781 50.465 94.9175 50.641L98.7785 55.558H98.4815V50.96C98.4815 50.7033 98.5475 50.5053 98.6795 50.366C98.8188 50.2193 99.0168 50.146 99.2735 50.146C99.5301 50.146 99.7245 50.2193 99.8565 50.366C99.9958 50.5053 100.065 50.7033 100.065 50.96V57.307C100.065 57.549 100.003 57.7433 99.8785 57.89C99.7538 58.0293 99.5851 58.099 99.3725 58.099C99.1671 58.099 99.0021 58.0587 98.8775 57.978C98.7601 57.8973 98.6318 57.769 98.4925 57.593L94.6425 52.676H94.9285V57.274C94.9285 57.538 94.8625 57.7433 94.7305 57.89C94.5985 58.0293 94.4005 58.099 94.1365 58.099ZM103.288 58C103.002 58 102.782 57.923 102.628 57.769C102.474 57.615 102.397 57.395 102.397 57.109V51.136C102.397 50.85 102.474 50.63 102.628 50.476C102.782 50.322 103.002 50.245 103.288 50.245H107.127C107.347 50.245 107.512 50.3037 107.622 50.421C107.739 50.531 107.798 50.6923 107.798 50.905C107.798 51.125 107.739 51.2937 107.622 51.411C107.512 51.521 107.347 51.576 107.127 51.576H104.025V53.391H106.874C107.101 53.391 107.27 53.4497 107.38 53.567C107.497 53.677 107.556 53.842 107.556 54.062C107.556 54.282 107.497 54.4507 107.38 54.568C107.27 54.678 107.101 54.733 106.874 54.733H104.025V56.669H107.127C107.347 56.669 107.512 56.7277 107.622 56.845C107.739 56.955 107.798 57.1163 107.798 57.329C107.798 57.549 107.739 57.7177 107.622 57.835C107.512 57.945 107.347 58 107.127 58H103.288ZM112.533 58.099C112.254 58.099 112.042 58.022 111.895 57.868C111.748 57.714 111.675 57.4977 111.675 57.219V51.653H109.728C109.501 51.653 109.325 51.5907 109.2 51.466C109.075 51.3413 109.013 51.169 109.013 50.949C109.013 50.7217 109.075 50.5493 109.2 50.432C109.325 50.3073 109.501 50.245 109.728 50.245H115.327C115.554 50.245 115.73 50.3073 115.855 50.432C115.98 50.5493 116.042 50.7217 116.042 50.949C116.042 51.169 115.98 51.3413 115.855 51.466C115.73 51.5907 115.554 51.653 115.327 51.653H113.38V57.219C113.38 57.4977 113.307 57.714 113.16 57.868C113.021 58.022 112.812 58.099 112.533 58.099ZM120.601 58.099C120.366 58.099 120.175 58.044 120.029 57.934C119.882 57.8167 119.765 57.6407 119.677 57.406L117.455 51.158C117.359 50.8793 117.378 50.641 117.51 50.443C117.649 50.245 117.887 50.146 118.225 50.146C118.459 50.146 118.639 50.201 118.764 50.311C118.896 50.421 119.002 50.5933 119.083 50.828L120.898 56.229H120.425L122.339 50.839C122.427 50.6043 122.533 50.432 122.658 50.322C122.79 50.2047 122.962 50.146 123.175 50.146C123.38 50.146 123.545 50.2047 123.67 50.322C123.794 50.432 123.901 50.608 123.989 50.85L125.815 56.229H125.408L127.256 50.828C127.329 50.6007 127.432 50.432 127.564 50.322C127.696 50.2047 127.875 50.146 128.103 50.146C128.389 50.146 128.598 50.245 128.73 50.443C128.862 50.641 128.876 50.8793 128.774 51.158L126.53 57.417C126.449 57.6443 126.339 57.8167 126.2 57.934C126.06 58.044 125.87 58.099 125.628 58.099C125.393 58.099 125.206 58.044 125.067 57.934C124.927 57.8167 124.814 57.6407 124.726 57.406L122.988 52.489H123.252L121.492 57.417C121.404 57.6443 121.29 57.8167 121.151 57.934C121.019 58.044 120.835 58.099 120.601 58.099ZM134.214 58.121C133.451 58.121 132.78 57.956 132.201 57.626C131.629 57.2887 131.182 56.8193 130.859 56.218C130.544 55.6167 130.386 54.9163 130.386 54.117C130.386 53.5083 130.474 52.962 130.65 52.478C130.833 51.9867 131.094 51.5687 131.431 51.224C131.768 50.872 132.172 50.6007 132.641 50.41C133.118 50.2193 133.642 50.124 134.214 50.124C134.991 50.124 135.666 50.289 136.238 50.619C136.81 50.949 137.254 51.4147 137.569 52.016C137.892 52.61 138.053 53.3067 138.053 54.106C138.053 54.7147 137.961 55.2647 137.778 55.756C137.595 56.2473 137.334 56.669 136.997 57.021C136.66 57.373 136.256 57.6443 135.787 57.835C135.318 58.0257 134.793 58.121 134.214 58.121ZM134.214 56.669C134.647 56.669 135.013 56.57 135.314 56.372C135.622 56.1667 135.857 55.8733 136.018 55.492C136.187 55.1033 136.271 54.645 136.271 54.117C136.271 53.3103 136.091 52.687 135.732 52.247C135.373 51.7997 134.867 51.576 134.214 51.576C133.789 51.576 133.422 51.675 133.114 51.873C132.806 52.071 132.571 52.3607 132.41 52.742C132.249 53.1233 132.168 53.5817 132.168 54.117C132.168 54.9163 132.348 55.5433 132.707 55.998C133.066 56.4453 133.569 56.669 134.214 56.669ZM141 58.099C140.721 58.099 140.508 58.022 140.362 57.868C140.215 57.714 140.142 57.4977 140.142 57.219V51.114C140.142 50.828 140.215 50.6117 140.362 50.465C140.516 50.3183 140.732 50.245 141.011 50.245H143.684C144.549 50.245 145.216 50.454 145.686 50.872C146.155 51.29 146.39 51.873 146.39 52.621C146.39 53.105 146.283 53.523 146.071 53.875C145.858 54.227 145.55 54.4983 145.147 54.689C144.751 54.8797 144.263 54.975 143.684 54.975L143.772 54.788H144.223C144.531 54.788 144.798 54.865 145.026 55.019C145.26 55.1657 145.462 55.393 145.631 55.701L146.313 56.966C146.415 57.1493 146.463 57.329 146.456 57.505C146.448 57.681 146.382 57.824 146.258 57.934C146.133 58.044 145.95 58.099 145.708 58.099C145.466 58.099 145.268 58.0477 145.114 57.945C144.967 57.8423 144.835 57.6847 144.718 57.472L143.662 55.525C143.552 55.3197 143.416 55.1803 143.255 55.107C143.101 55.0337 142.91 54.997 142.683 54.997H141.847V57.219C141.847 57.4977 141.773 57.714 141.627 57.868C141.487 58.022 141.278 58.099 141 58.099ZM141.847 53.765H143.376C143.83 53.765 144.171 53.6733 144.399 53.49C144.633 53.3067 144.751 53.0317 144.751 52.665C144.751 52.3057 144.633 52.0343 144.399 51.851C144.171 51.6677 143.83 51.576 143.376 51.576H141.847V53.765ZM149.429 58.099C149.15 58.099 148.938 58.022 148.791 57.868C148.644 57.714 148.571 57.4977 148.571 57.219V51.015C148.571 50.7363 148.644 50.5237 148.791 50.377C148.938 50.223 149.15 50.146 149.429 50.146C149.7 50.146 149.909 50.223 150.056 50.377C150.203 50.5237 150.276 50.7363 150.276 51.015V53.622H150.298L153.224 50.564C153.349 50.432 153.477 50.333 153.609 50.267C153.748 50.1937 153.906 50.157 154.082 50.157C154.339 50.157 154.522 50.223 154.632 50.355C154.749 50.487 154.801 50.641 154.786 50.817C154.771 50.993 154.691 51.158 154.544 51.312L151.607 54.315L151.618 53.578L154.698 56.867C154.867 57.0503 154.951 57.2373 154.951 57.428C154.958 57.6187 154.896 57.78 154.764 57.912C154.639 58.0367 154.452 58.099 154.203 58.099C153.99 58.099 153.818 58.055 153.686 57.967C153.561 57.879 153.422 57.7507 153.268 57.582L150.298 54.458H150.276V57.219C150.276 57.4977 150.203 57.714 150.056 57.868C149.917 58.022 149.708 58.099 149.429 58.099Z" fill="#598DF8"/>
</svg>
