<svg width="99" height="147" viewBox="0 0 99 147" fill="none" xmlns="http://www.w3.org/2000/svg">
<path d="M27.8438 128.625C27.8438 126.073 26.9414 123.904 25.1367 122.117C23.332 120.331 21.1406 119.438 18.5625 119.438C15.9844 119.438 13.793 120.331 11.9883 122.117C10.1836 123.904 9.28125 126.073 9.28125 128.625C9.28125 131.177 10.1836 133.346 11.9883 135.133C13.793 136.919 15.9844 137.812 18.5625 137.812C21.1406 137.812 23.332 136.919 25.1367 135.133C26.9414 133.346 27.8438 131.177 27.8438 128.625ZM27.8438 18.375C27.8438 15.8229 26.9414 13.6536 25.1367 11.8672C23.332 10.0807 21.1406 9.1875 18.5625 9.1875C15.9844 9.1875 13.793 10.0807 11.9883 11.8672C10.1836 13.6536 9.28125 15.8229 9.28125 18.375C9.28125 20.9271 10.1836 23.0964 11.9883 24.8828C13.793 26.6693 15.9844 27.5625 18.5625 27.5625C21.1406 27.5625 23.332 26.6693 25.1367 24.8828C26.9414 23.0964 27.8438 20.9271 27.8438 18.375ZM89.7188 30.625C89.7188 28.0729 88.8164 25.9036 87.0117 24.1172C85.207 22.3307 83.0156 21.4375 80.4375 21.4375C77.8594 21.4375 75.668 22.3307 73.8633 24.1172C72.0586 25.9036 71.1562 28.0729 71.1562 30.625C71.1562 33.1771 72.0586 35.3464 73.8633 37.1328C75.668 38.9193 77.8594 39.8125 80.4375 39.8125C83.0156 39.8125 85.207 38.9193 87.0117 37.1328C88.8164 35.3464 89.7188 33.1771 89.7188 30.625ZM99 30.625C99 33.9427 98.1621 37.0212 96.4863 39.8604C94.8105 42.6995 92.5547 44.9167 89.7188 46.5117C89.5898 64.8229 82.3066 78.0299 67.8691 86.1328C63.4863 88.5573 56.9443 91.1413 48.2432 93.8848C39.9932 96.4368 34.5308 98.7018 31.856 100.68C29.1812 102.658 27.8438 105.848 27.8438 110.25V112.738C30.6797 114.333 32.9355 116.55 34.6113 119.39C36.2871 122.229 37.125 125.307 37.125 128.625C37.125 133.729 35.3203 138.068 31.7109 141.641C28.1016 145.214 23.7187 147 18.5625 147C13.4063 147 9.02344 145.214 5.41406 141.641C1.80469 138.068 0 133.729 0 128.625C0 125.307 0.837891 122.229 2.51367 119.39C4.18945 116.55 6.44531 114.333 9.28125 112.738V34.2617C6.44531 32.6667 4.18945 30.4495 2.51367 27.6104C0.837891 24.7712 0 21.6927 0 18.375C0 13.2708 1.80469 8.93229 5.41406 5.35938C9.02344 1.78646 13.4063 0 18.5625 0C23.7187 0 28.1016 1.78646 31.7109 5.35938C35.3203 8.93229 37.125 13.2708 37.125 18.375C37.125 21.6927 36.2871 24.7712 34.6113 27.6104C32.9355 30.4495 30.6797 32.6667 27.8438 34.2617V81.8262C31.3242 80.1673 36.2871 78.349 42.7324 76.3711C46.2773 75.2865 49.0972 74.3454 51.1919 73.5479C53.2866 72.7503 55.5586 71.7614 58.0078 70.5811C60.457 69.4007 62.3584 68.1406 63.7119 66.8008C65.0654 65.4609 66.3706 63.834 67.6274 61.9199C68.8843 60.0059 69.7866 57.7887 70.3345 55.2686C70.8823 52.7484 71.1562 49.8294 71.1562 46.5117C68.3203 44.9167 66.0645 42.6995 64.3887 39.8604C62.7129 37.0212 61.875 33.9427 61.875 30.625C61.875 25.5208 63.6797 21.1823 67.2891 17.6094C70.8984 14.0365 75.2813 12.25 80.4375 12.25C85.5937 12.25 89.9766 14.0365 93.5859 17.6094C97.1953 21.1823 99 25.5208 99 30.625Z" fill="#194F76"/>
</svg>
