<svg width="188" height="153" viewBox="0 0 188 153" fill="none" xmlns="http://www.w3.org/2000/svg">
<path fill-rule="evenodd" clip-rule="evenodd" d="M52.3864 40.2269C55.5817 44.0761 55.0637 49.7969 51.2292 53.0045L23.4102 76.2761L51.2292 99.5478C55.0637 102.755 55.5817 108.476 52.3864 112.325C49.191 116.175 43.4922 116.695 39.6577 113.487L3.50725 83.2457C1.44674 81.522 0.255371 78.9686 0.255371 76.2761C0.255371 73.5837 1.44674 71.0303 3.50725 69.3066L39.6577 39.0653C43.4922 35.8577 49.191 36.3778 52.3864 40.2269Z" fill="#194F76"/>
<path fill-rule="evenodd" clip-rule="evenodd" d="M135.204 40.2269C138.399 36.3778 144.098 35.8577 147.932 39.0653L184.083 69.3066C186.143 71.0303 187.335 73.5837 187.335 76.2761C187.335 78.9686 186.143 81.522 184.083 83.2457L147.932 113.487C144.098 116.695 138.399 116.175 135.204 112.325C132.008 108.476 132.527 102.755 136.361 99.5478L164.18 76.2761L136.361 53.0045C132.527 49.7969 132.008 44.0761 135.204 40.2269Z" fill="#194F76"/>
<path fill-rule="evenodd" clip-rule="evenodd" d="M121.6 0.910774C126.397 2.63013 128.872 7.85692 127.127 12.5851L77.8346 146.193C76.0902 150.922 70.7873 153.361 65.9902 151.642C61.1931 149.922 58.7184 144.695 60.4628 139.967L109.755 6.35881C111.5 1.63059 116.803 -0.808579 121.6 0.910774Z" fill="#194F76"/>
</svg>
